<svg width="40" height="40" viewBox="0 0 40 40" fill="none" xmlns="http://www.w3.org/2000/svg">
<mask id="mask0_7_4708" style="mask-type:alpha" maskUnits="userSpaceOnUse" x="0" y="0" width="40" height="40">
<path d="M35 0H5C2.23858 0 0 2.23858 0 5V35C0 37.7614 2.23858 40 5 40H35C37.7614 40 40 37.7614 40 35V5C40 2.23858 37.7614 0 35 0Z" fill="white"/>
</mask>
<g mask="url(#mask0_7_4708)">
<path d="M35 0H5C2.23858 0 0 2.23858 0 5V35C0 37.7614 2.23858 40 5 40H35C37.7614 40 40 37.7614 40 35V5C40 2.23858 37.7614 0 35 0Z" fill="white"/>
<path d="M40 0H0V40H40V0Z" fill="#05AB41"/>
<path fill-rule="evenodd" clip-rule="evenodd" d="M4.21808 20.5455C3.75249 20.2442 3.76206 19.7496 4.21808 19.4545L19.532 9.54547C19.9976 9.24421 20.7621 9.2504 21.2181 9.54547L36.532 19.4545C36.9976 19.7558 36.988 20.2504 36.532 20.5455L21.2181 30.4545C20.7525 30.7558 19.988 30.7496 19.532 30.4545L4.21808 20.5455Z" fill="#FDD216"/>
<mask id="mask1_7_4708" style="mask-type:alpha" maskUnits="userSpaceOnUse" x="13" y="12" width="15" height="15">
<path d="M26.875 19.9999C26.875 23.5897 23.9648 26.4999 20.375 26.4999C16.7851 26.4999 13.875 23.5897 13.875 19.9999C13.875 16.41 16.7851 13.4999 20.375 13.4999C23.9648 13.4999 26.875 16.41 26.875 19.9999Z" fill="white" stroke="#F7F8F9"/>
</mask>
<g mask="url(#mask1_7_4708)">
<path d="M20.375 26.9999C24.241 26.9999 27.375 23.8659 27.375 19.9999C27.375 16.1339 24.241 12.9999 20.375 12.9999C16.509 12.9999 13.375 16.1339 13.375 19.9999C13.375 23.8659 16.509 26.9999 20.375 26.9999Z" fill="#053087"/>
<path d="M11.9358 17.3942C13.2629 16.3195 15.6071 16.6617 20.779 18.0413C23.9801 18.8953 27.5741 20.7042 28.8132 22.0504L28.941 22.198L29.5703 22.9752L28.016 24.2338L27.3867 23.4567C26.6093 22.4967 23.2119 20.7603 20.2635 19.9738L19.4582 19.7628C15.9395 18.8588 13.843 18.5682 13.2537 18.9081L13.1944 18.9485L12.4173 19.5778L11.1586 18.0235L11.9358 17.3942Z" fill="white"/>
</g>
</g>
</svg>
