<svg width="24" height="24" viewBox="0 0 24 24" fill="none" xmlns="http://www.w3.org/2000/svg">
<path fill-rule="evenodd" clip-rule="evenodd" d="M12 13.4142L6.30199 19.1122C5.93419 19.48 5.31946 19.4616 4.92893 19.0711C4.53841 18.6805 4.51998 18.0658 4.88777 17.698L10.5858 12L4.88777 6.30197C4.51998 5.93418 4.53841 5.31944 4.92893 4.92892C5.31946 4.53839 5.93419 4.51997 6.30199 4.88776L12 10.5858L17.698 4.88776C18.0658 4.51997 18.6805 4.53839 19.0711 4.92892C19.4616 5.31944 19.48 5.93418 19.1122 6.30197L13.4142 12L19.1122 17.698C19.48 18.0658 19.4616 18.6805 19.0711 19.0711C18.6805 19.4616 18.0658 19.48 17.698 19.1122L12 13.4142Z" fill="#354360"/>
</svg>
