<svg width="40" height="40" viewBox="0 0 40 40" fill="none" xmlns="http://www.w3.org/2000/svg">
<mask id="mask0_7_4714" style="mask-type:alpha" maskUnits="userSpaceOnUse" x="0" y="0" width="40" height="40">
<path d="M35 0H5C2.23858 0 0 2.23858 0 5V35C0 37.7614 2.23858 40 5 40H35C37.7614 40 40 37.7614 40 35V5C40 2.23858 37.7614 0 35 0Z" fill="white"/>
</mask>
<g mask="url(#mask0_7_4714)">
<path d="M34.375 0.625H5.625C2.86358 0.625 0.625 2.86358 0.625 5.625V34.375C0.625 37.1364 2.86358 39.375 5.625 39.375H34.375C37.1364 39.375 39.375 37.1364 39.375 34.375V5.625C39.375 2.86358 37.1364 0.625 34.375 0.625Z" stroke="#F7F8F9" stroke-width="0.5625"/>
<path d="M40 21.25H0V40H40V21.25Z" fill="#EA3B2E"/>
<path d="M21.25 0H0V21.25H21.25V0Z" fill="#0B48C2"/>
<path fill-rule="evenodd" clip-rule="evenodd" d="M11.6667 14.2667L7.74813 17.0601L9.19395 12.4701L5.32632 9.60655L10.1385 9.56322L11.6667 5L13.1949 9.56322L18.0071 9.60655L14.1394 12.4701L15.5853 17.0601L11.6667 14.2667Z" fill="white"/>
</g>
</svg>
