<svg width="40" height="40" viewBox="0 0 40 40" fill="none" xmlns="http://www.w3.org/2000/svg">
<mask id="mask0_7_4807" style="mask-type:alpha" maskUnits="userSpaceOnUse" x="0" y="0" width="40" height="40">
<path d="M35 0H5C2.23858 0 0 2.23858 0 5V35C0 37.7614 2.23858 40 5 40H35C37.7614 40 40 37.7614 40 35V5C40 2.23858 37.7614 0 35 0Z" fill="white"/>
</mask>
<g mask="url(#mask0_7_4807)">
<path d="M35 0H5C2.23858 0 0 2.23858 0 5V35C0 37.7614 2.23858 40 5 40H35C37.7614 40 40 37.7614 40 35V5C40 2.23858 37.7614 0 35 0Z" fill="white"/>
<g filter="url(#filter0_d_7_4807)">
<path d="M40 17.5H0V28.75H40V17.5Z" fill="black"/>
<path d="M0.5 28.25V18H39.5V28.25H0.5Z" stroke="#F7F8F9"/>
</g>
<path d="M40 17.5H0V28.75H40V17.5Z" fill="#0748AE"/>
<g filter="url(#filter1_d_7_4807)">
<path d="M40 28.75H0V40H40V28.75Z" fill="black"/>
</g>
<path d="M40 28.75H0V40H40V28.75Z" fill="#DE2035"/>
<path d="M40 0H0V18.75H40V0Z" fill="#FFD935"/>
</g>
<defs>
<filter id="filter0_d_7_4807" x="-4" y="13.5" width="48" height="19.25" filterUnits="userSpaceOnUse" color-interpolation-filters="sRGB">
<feFlood flood-opacity="0" result="BackgroundImageFix"/>
<feColorMatrix in="SourceAlpha" type="matrix" values="0 0 0 0 0 0 0 0 0 0 0 0 0 0 0 0 0 0 127 0" result="hardAlpha"/>
<feOffset/>
<feGaussianBlur stdDeviation="2"/>
<feColorMatrix type="matrix" values="0 0 0 0 0 0 0 0 0 0 0 0 0 0 0 0 0 0 0.06 0"/>
<feBlend mode="normal" in2="BackgroundImageFix" result="effect1_dropShadow_7_4807"/>
<feBlend mode="normal" in="SourceGraphic" in2="effect1_dropShadow_7_4807" result="shape"/>
</filter>
<filter id="filter1_d_7_4807" x="-4" y="24.75" width="48" height="19.25" filterUnits="userSpaceOnUse" color-interpolation-filters="sRGB">
<feFlood flood-opacity="0" result="BackgroundImageFix"/>
<feColorMatrix in="SourceAlpha" type="matrix" values="0 0 0 0 0 0 0 0 0 0 0 0 0 0 0 0 0 0 127 0" result="hardAlpha"/>
<feOffset/>
<feGaussianBlur stdDeviation="2"/>
<feColorMatrix type="matrix" values="0 0 0 0 0 0 0 0 0 0 0 0 0 0 0 0 0 0 0.06 0"/>
<feBlend mode="normal" in2="BackgroundImageFix" result="effect1_dropShadow_7_4807"/>
<feBlend mode="normal" in="SourceGraphic" in2="effect1_dropShadow_7_4807" result="shape"/>
</filter>
</defs>
</svg>
