<svg width="40" height="40" viewBox="0 0 40 40" fill="none" xmlns="http://www.w3.org/2000/svg">
<mask id="mask0_7_4720" style="mask-type:alpha" maskUnits="userSpaceOnUse" x="0" y="0" width="40" height="40">
<path d="M35 0H5C2.23858 0 0 2.23858 0 5V35C0 37.7614 2.23858 40 5 40H35C37.7614 40 40 37.7614 40 35V5C40 2.23858 37.7614 0 35 0Z" fill="white"/>
</mask>
<g mask="url(#mask0_7_4720)">
<path d="M35 0H5C2.23858 0 0 2.23858 0 5V35C0 37.7614 2.23858 40 5 40H35C37.7614 40 40 37.7614 40 35V5C40 2.23858 37.7614 0 35 0Z" fill="white"/>
<path d="M40 18.25H0V30.75H40V18.25Z" fill="#0748AE"/>
<path d="M40.75 30H-1.25V42.5H40.75V30Z" fill="#DE2035"/>
<path d="M40 0H0V18.75H40V0Z" fill="#FFD935"/>
<path fill-rule="evenodd" clip-rule="evenodd" d="M22.8805 17.3003C24.0461 18.176 24.8 19.5701 24.8 21.1403C24.8 23.7912 22.651 25.9403 20 25.9403C17.349 25.9403 15.2 23.7912 15.2 21.1403C15.2 19.5711 15.953 18.1778 17.1173 17.302L18.8 22.3403H21.2L22.8805 17.3003Z" fill="#FFD935"/>
<path fill-rule="evenodd" clip-rule="evenodd" d="M20 16.1L21.2 22.1H18.8L20 16.1Z" fill="#5FC0DC"/>
<path d="M21.737 11.8371C21.9567 11.6174 22.2686 11.5228 22.5688 11.5778L22.6964 11.6106L26.2964 12.8106C26.7876 12.9744 27.0531 13.5053 26.8893 13.9965C26.7393 14.4468 26.2806 14.7073 25.8269 14.6215L25.7035 14.5894L22.6525 13.5725L20.6629 15.5629C20.33 15.8958 19.8092 15.926 19.4422 15.6537L19.337 15.5629L17.3462 13.5725L14.2964 14.5894C13.8461 14.7395 13.3625 14.5289 13.1589 14.1145L13.1106 13.9965C12.9605 13.5462 13.171 13.0626 13.5855 12.859L13.7035 12.8106L17.3035 11.6106C17.5983 11.5124 17.9195 11.5672 18.1634 11.7507L18.2629 11.8371L20 13.5738L21.737 11.8371Z" fill="#3F2821"/>
</g>
</svg>
