<svg width="40" height="40" viewBox="0 0 40 40" fill="none" xmlns="http://www.w3.org/2000/svg">
<mask id="mask0_7_4726" style="mask-type:alpha" maskUnits="userSpaceOnUse" x="0" y="0" width="40" height="40">
<path d="M35 0H5C2.23858 0 0 2.23858 0 5V35C0 37.7614 2.23858 40 5 40H35C37.7614 40 40 37.7614 40 35V5C40 2.23858 37.7614 0 35 0Z" fill="white"/>
</mask>
<g mask="url(#mask0_7_4726)">
<path d="M35 0H5C2.23858 0 0 2.23858 0 5V35C0 37.7614 2.23858 40 5 40H35C37.7614 40 40 37.7614 40 35V5C40 2.23858 37.7614 0 35 0Z" fill="white"/>
<path d="M40 5H20V10H40V5Z" fill="#0E4DC5"/>
<path d="M40 13.75H20V18.75H40V13.75Z" fill="#0E4DC5"/>
<path d="M40 22.5H0V27.5H40V22.5Z" fill="#0E4DC5"/>
<path d="M40 31.25H0V36.25H40V31.25Z" fill="#0E4DC5"/>
<path fill-rule="evenodd" clip-rule="evenodd" d="M12.2939 5L12.7166 7.79122L15.3012 6.36168L14.394 9.04894L17.3823 8.81534L15.3249 10.8664L18.125 11.875L15.3249 12.8836L17.3823 14.9347L14.394 14.7011L15.3012 17.3883L12.7166 15.9588L12.2939 18.75L10.625 16.4077L8.95609 18.75L8.53336 15.9588L5.94883 17.3883L6.85599 14.7011L3.86773 14.9347L5.92513 12.8836L3.125 11.875L5.92513 10.8664L3.86773 8.81534L6.85599 9.04894L5.94883 6.36168L8.53336 7.79122L8.95609 5L10.625 7.34234L12.2939 5ZM10.625 7.38749C7.9891 7.38749 5.85227 9.39662 5.85227 11.875C5.85227 14.3534 7.9891 16.3625 10.625 16.3625C13.2609 16.3625 15.3977 14.3534 15.3977 11.875C15.3977 9.39662 13.2609 7.38749 10.625 7.38749ZM10.625 8.20176C12.6961 8.20176 14.375 9.78036 14.375 11.7277C14.375 13.675 12.6961 15.2536 10.625 15.2536C8.55393 15.2536 6.875 13.675 6.875 11.7277C6.875 9.78036 8.55393 8.20176 10.625 8.20176Z" fill="#FED443"/>
</g>
</svg>
