<svg xmlns="http://www.w3.org/2000/svg" width="19.693" height="21.745" viewBox="0 0 19.693 21.745">
  <path id="Icon_ionic-md-share" data-name="Icon ionic-md-share" d="M20.9,18.5a2.99,2.99,0,0,0-2.14.819l-7.844-4.535a3.674,3.674,0,0,0,.11-.765,3.672,3.672,0,0,0-.11-.765l7.735-4.48a3.283,3.283,0,1,0-1.042-2.4,3.652,3.652,0,0,0,.11.765l-7.735,4.48a3.3,3.3,0,0,0-2.249-.874A3.248,3.248,0,0,0,4.5,14.021a3.3,3.3,0,0,0,5.541,2.4l7.79,4.535a2.741,2.741,0,0,0-.11.71A3.182,3.182,0,1,0,20.9,18.5Z" transform="translate(-4.5 -3.094)" fill="#1fd8b5"/>
</svg>
