<svg xmlns="http://www.w3.org/2000/svg" width="37.086" height="37.086" viewBox="0 0 37.086 37.086">
  <g id="Grupo_278" data-name="Grupo 278" transform="translate(-2.5 -2.5)">
    <path id="Trazado_1913" data-name="Trazado 1913" d="M14.819,58.239,6.426,66.632V62.26a1.913,1.913,0,0,0-3.826,0v9.057a1.916,1.916,0,0,0,1.913,1.913H13.57a1.913,1.913,0,0,0,0-3.826H9.119l8.393-8.393a1.956,1.956,0,0,0,0-2.733A1.874,1.874,0,0,0,14.819,58.239Z" transform="translate(-0.061 -33.643)" fill="#fff"/>
    <path id="Trazado_1914" data-name="Trazado 1914" d="M71.309,2.5H62.252a1.913,1.913,0,0,0,0,3.826h4.372l-8.393,8.432a1.956,1.956,0,0,0,0,2.733,1.854,1.854,0,0,0,1.366.547,2.022,2.022,0,0,0,1.366-.547L69.357,9.1v4.411a1.913,1.913,0,1,0,3.826,0v-9.1A1.859,1.859,0,0,0,71.309,2.5Z" transform="translate(-33.636)" fill="#fff"/>
    <path id="Trazado_1915" data-name="Trazado 1915" d="M9.058,6.426H13.47a1.913,1.913,0,1,0,0-3.826H4.413A1.916,1.916,0,0,0,2.5,4.513V13.57a1.913,1.913,0,1,0,3.826,0V9.158l8.393,8.393a1.854,1.854,0,0,0,1.366.547,2.022,2.022,0,0,0,1.366-.547,1.956,1.956,0,0,0,0-2.733Z" transform="translate(0 -0.061)" fill="#fff"/>
    <path id="Trazado_1916" data-name="Trazado 1916" d="M71.309,60.339A1.916,1.916,0,0,0,69.4,62.252v4.411l-8.432-8.432a1.932,1.932,0,0,0-2.733,2.733l8.393,8.393H62.252a1.913,1.913,0,1,0,0,3.826h9.057a1.916,1.916,0,0,0,1.913-1.913V62.252A1.916,1.916,0,0,0,71.309,60.339Z" transform="translate(-33.636 -33.636)" fill="#fff"/>
  </g>
</svg>
