<svg width="140" height="140" viewBox="0 0 140 140" fill="none" xmlns="http://www.w3.org/2000/svg">
    <path d="M62.735 15.6c2.326-4.05 8.169-4.05 10.495 0l57.351 99.896c2.317 4.035-.595 9.066-5.247 9.066H10.63c-4.651 0-7.564-5.031-5.247-9.066l57.352-99.895z" fill="#FEF4EA"/>
    <path fill-rule="evenodd" clip-rule="evenodd" d="M77.02 18.149c-2.911-5.164-10.222-5.164-13.133 0L11.39 111.292c-2.898 5.143.746 11.556 6.566 11.556H122.95c5.821 0 9.465-6.413 6.566-11.556l-30.807-54.66a.866.866 0 0 1 .31-1.17.832.832 0 0 1 1.149.317l30.807 54.659c3.543 6.286-.911 14.124-8.025 14.124H17.956c-7.114 0-11.567-7.838-8.025-14.124l52.497-93.143c3.557-6.31 12.493-6.31 16.05 0l10.82 19.198a.866.866 0 0 1-.31 1.17.833.833 0 0 1-1.148-.316L77.02 18.15zm14.047 23.599a.833.833 0 0 1 1.148.318l3.365 6c.231.411.09.935-.313 1.17a.833.833 0 0 1-1.147-.32l-3.366-6a.866.866 0 0 1 .313-1.168z" fill="#FF7D00"/>
    <path fill-rule="evenodd" clip-rule="evenodd" d="M65.092 57.467c1.344-.665 3.056-1.015 5.212-.94 2.11.073 3.768.582 5.05 1.389a7.37 7.37 0 0 1 2.73 3.07c1.136 2.34 1.09 5.063.717 6.853l-.001.005-4.918 21.176-.005.015c-.339 1.145-.73 2.135-1.489 2.803-.784.69-1.86.954-3.358.902-1.707-.06-2.715-1.142-3.269-2.109a6.517 6.517 0 0 1-.707-1.877l-.007-.036-.001-.008v-.003l-4.014-21.482-.002-.02c-.232-2.068-.153-4.797 1.123-6.993a6.85 6.85 0 0 1 2.939-2.745zM69.735 107.879a4.941 4.941 0 1 0 0-9.882 4.941 4.941 0 0 0 0 9.882z" fill="#FF7D00"/>
    <path d="M37.974 30.468c-.311-.257-.375-.745-.143-1.09.232-.346.673-.418.984-.162l1.114.917c.311.257.375.745.143 1.09-.233.346-.673.418-.985.162l-1.113-.917zM38.756 37.78c-.306-.252-.37-.732-.14-1.072l.838-1.247c.228-.34.662-.41.968-.158.307.252.37.732.141 1.072l-.838 1.246c-.229.34-.663.411-.969.159zM43.497 30.732c-.307-.252-.37-.732-.14-1.072l.839-1.245c.229-.34.663-.412.97-.16.306.253.369.732.14 1.072l-.84 1.245c-.229.34-.663.412-.97.16z" fill="#FF9E03"/>
</svg>
