<svg width="28" height="9" viewBox="0 0 28 9" fill="none" xmlns="http://www.w3.org/2000/svg">
<path d="M27.6363 2.79256C26.1632 4.08198 24.8566 4.16334 23.2873 3.00828C22.5662 2.47821 21.919 1.84583 21.1966 1.31822C20.637 0.910194 20.0452 0.50463 19.4067 0.251923C18.3009 -0.185693 17.1804 -0.0365369 16.1708 0.576125C15.4854 0.992784 14.8604 1.51176 14.2244 2.00731C14.1356 2.07635 14.0678 2.11333 14 2.11086C13.9322 2.11333 13.8656 2.07635 13.7756 2.00731C13.1396 1.51299 12.5146 0.992784 11.8292 0.576125C10.8208 -0.0377697 9.69903 -0.185693 8.59328 0.251923C7.95474 0.50463 7.36303 0.908962 6.80337 1.31822C6.07977 1.84583 5.43383 2.47821 4.71269 3.00828C3.14343 4.16334 1.83675 4.08198 0.363646 2.79256C0.24284 2.68654 0.120807 2.58053 0 2.47452C0.219424 3.68751 0.692777 4.776 1.3905 5.76465C2.28175 7.02572 3.44915 7.92807 4.91609 8.42362C8.34428 9.58238 12.6736 7.96751 14 4.919C15.3264 7.96751 19.657 9.58361 23.0839 8.42362C24.5508 7.92807 25.7182 7.02449 26.6095 5.76465C27.3072 4.77724 27.7806 3.68875 28 2.47452C27.8792 2.5793 27.7571 2.68654 27.6363 2.79256Z" fill="#FE3F23"/>
</svg>
