<svg xmlns="http://www.w3.org/2000/svg" width="137.371" height="60.223" viewBox="0 0 137.371 60.223">
  <g id="logo" transform="translate(-1.149 5.054)">
    <g id="Grupo_124" data-name="Grupo 124" transform="translate(-478.95 -157.666)">
      <g id="Grupo_122" data-name="Grupo 122" transform="translate(510.133 152.612)">
        <g id="Grupo_121" data-name="Grupo 121" transform="translate(0 0)">
          <path id="Trazado_84" data-name="Trazado 84" d="M771.8,159.791a3.591,3.591,0,1,0-3.5-3.589,3.536,3.536,0,0,0,3.5,3.589m-50.843,20.361c-.126.084-.253.14-.379.224a7.628,7.628,0,0,1-.982.448c-.328.112-.656.224-.958.309a5.41,5.41,0,0,1-.932.141,4.71,4.71,0,0,1-.883,0c-.276-.028-.578-.057-.856-.113a4.6,4.6,0,0,1-.832-.251,7,7,0,0,1-.781-.393q-.387-.252-.755-.532a5.749,5.749,0,0,1-.706-.7,10.169,10.169,0,0,1-.656-.841,9.316,9.316,0,0,1-.6-1.009,8.362,8.362,0,0,1-.53-1.178c-.076-.2-.15-.421-.225-.645a10.848,10.848,0,0,1-.328-1.094,13.579,13.579,0,0,1-.328-1.542A16.955,16.955,0,0,1,710,171.29c-.051-.505-.076-1.038-.1-1.569a.132.132,0,0,1,.074-.142,19.744,19.744,0,0,0,3-1.234,13.65,13.65,0,0,0,3.023-2.1,9.928,9.928,0,0,0,2.066-2.749,7.5,7.5,0,0,0,.781-3.337,5.225,5.225,0,0,0-.883-2.973,7.412,7.412,0,0,0-2.242-2.1,10.788,10.788,0,0,0-3.125-1.263,14.771,14.771,0,0,0-3.5-.42,13.847,13.847,0,0,0-5.542,1.038,13.577,13.577,0,0,0-4.031,2.5,11.045,11.045,0,0,0-2.47,3.029,5.906,5.906,0,0,0-.857,2.72,3.412,3.412,0,0,0,.579,2.075,2.986,2.986,0,0,0,1.286,1.039,1.979,1.979,0,0,0,1.385.055,1.031,1.031,0,0,0,.755-1.066,6.835,6.835,0,0,1,.63-2.608,10.787,10.787,0,0,1,1.789-2.89,11.207,11.207,0,0,1,2.747-2.327,6.826,6.826,0,0,1,3.526-.925,4.454,4.454,0,0,1,2.873.869,3.489,3.489,0,0,1,1.033,2.776,6.9,6.9,0,0,1-.578,2.777,10.09,10.09,0,0,1-1.538,2.384,10.291,10.291,0,0,1-2.166,1.851,15.816,15.816,0,0,1-1.487.841c-.1.055-.2-.055-.177-.169.378-1.093.781-2.187,1.209-3.336.53-1.4,1.109-2.806,1.739-4.236a.976.976,0,0,0-.493-1.289.987.987,0,0,0-.163-.056,9.885,9.885,0,0,0-3.451-.113,1.693,1.693,0,0,0-1.336.983q-1.12,2.487-2.065,5.047-.987,2.716-1.866,5.469-.7,2.189-1.209,4.431a15.321,15.321,0,0,0-.428,2.749,2.383,2.383,0,0,0,.707,1.766,3.688,3.688,0,0,0,1.51.952,3.313,3.313,0,0,0,1.639.142,1.268,1.268,0,0,0,1.083-1.067c.05-.336.151-.785.277-1.318.151-.56.3-1.206.452-1.907q.2-.876.454-1.738a.129.129,0,0,1,.253.027c.051.448.1.9.177,1.346.074.505.175.982.276,1.459s.227.925.353,1.375a9.059,9.059,0,0,0,.454,1.263,11.812,11.812,0,0,0,.527,1.176c.2.365.378.729.605,1.067s.453.644.681.952q.377.464.755.843a6.434,6.434,0,0,0,.681.589,8.481,8.481,0,0,0,.906.59,7.717,7.717,0,0,0,.983.447l.529.169c.177.055.354.084.53.14a7.175,7.175,0,0,0,1.109.139h.327a4.2,4.2,0,0,0,.832-.055,9.325,9.325,0,0,0,1.183-.2,9.617,9.617,0,0,0,1.21-.365,11.623,11.623,0,0,0,1.21-.561c.2-.112.428-.224.6-.336a10.7,10.7,0,0,0,1.185-.757c.4-.281.831-.617,1.26-.982.176-.14.353-.308.529-.448a.966.966,0,0,0,.151-1.263.93.93,0,0,0-1.259-.307" transform="translate(-696.19 -152.612)" fill="#fd3f22"/>
          <g id="Grupo_120" data-name="Grupo 120" transform="translate(19.604 7.964)">
            <path id="a" d="M880.149,215.353a16.484,16.484,0,0,1-.529,2.159,23.348,23.348,0,0,1-.883,2.5c-.378.87-.781,1.683-1.183,2.411a18.9,18.9,0,0,1-1.184,1.853,5.257,5.257,0,0,1-1.034,1.065.793.793,0,0,1-.4.2h-.049c-.051-.028-.177-.112-.228-.533a5.681,5.681,0,0,1,.076-1.542,15.772,15.772,0,0,1,.53-2.188,20.767,20.767,0,0,1,.907-2.5,21.655,21.655,0,0,1,1.159-2.384,13.388,13.388,0,0,1,1.185-1.823,5.2,5.2,0,0,1,1.032-1.065.777.777,0,0,1,.4-.2H880c.05.027.177.111.227.532a5.447,5.447,0,0,1-.076,1.515m-15.722,0a16.311,16.311,0,0,1-.529,2.159,21.455,21.455,0,0,1-.881,2.5c-.379.87-.782,1.683-1.185,2.411a13.349,13.349,0,0,1-1.183,1.853,5.234,5.234,0,0,1-1.034,1.065.791.791,0,0,1-.4.2h-.05c-.051-.028-.177-.112-.228-.533a5.772,5.772,0,0,1,.076-1.542,15.94,15.94,0,0,1,.53-2.188,25.734,25.734,0,0,1,.881-2.5,22.1,22.1,0,0,1,1.16-2.384,13.509,13.509,0,0,1,1.184-1.823A5.2,5.2,0,0,1,863.8,213.5a.781.781,0,0,1,.4-.2h.051c.049.027.177.111.227.532a3.5,3.5,0,0,1-.051,1.515m-16.98-.028a16.39,16.39,0,0,1-.4,2.159,21.971,21.971,0,0,1-.78,2.5q-.47,1.212-1.034,2.384a13.114,13.114,0,0,1-1.058,1.823,4.9,4.9,0,0,1-.958,1.038c-.225.167-.326.2-.378.2h-.05c-.051-.028-.177-.112-.252-.562a6.043,6.043,0,0,1-.025-1.541,13.178,13.178,0,0,1,.378-2.132,24.73,24.73,0,0,1,1.814-4.879,18.14,18.14,0,0,1,1.058-1.851,5.172,5.172,0,0,1,.958-1.066c.227-.169.327-.2.378-.2h.051c.051.028.176.113.277.562a5.282,5.282,0,0,1,.023,1.571m47.7,4.207a.884.884,0,0,0-.781.421q-.3.462-.755,1.093a12.474,12.474,0,0,1-1.058,1.29c-.378.394-.729.759-1.057,1.038a1.151,1.151,0,0,1-.706.365c-.1,0-.253,0-.3-.448a5.605,5.605,0,0,1,.2-1.823,21.789,21.789,0,0,1,.756-2.5c.328-.925.68-1.795,1.008-2.608.353-.841.63-1.542.906-2.131.252-.59.43-.982.48-1.149a1.308,1.308,0,0,0-.228-1.4,2.461,2.461,0,0,0-1.285-.814,3.8,3.8,0,0,0-1.687-.027,2.206,2.206,0,0,0-1.487,1.122,23.735,23.735,0,0,0-1.21,2.469,33.435,33.435,0,0,0-1.411,3.645q-.418,1.193-.755,2.412a6.8,6.8,0,0,1-2.217,3.45,14.8,14.8,0,0,1-1.209.9,5.794,5.794,0,0,1-.555.336c-.049.028-.125-.028-.076-.084a13.778,13.778,0,0,0,.957-1.4,20.323,20.323,0,0,0,1.738-3.673,18.2,18.2,0,0,0,1.009-4.039,9.728,9.728,0,0,0-.126-3.141,4.146,4.146,0,0,0-1.184-2.1,3.112,3.112,0,0,0-2.092-.785,4.57,4.57,0,0,0-2.646.785,13.135,13.135,0,0,0-1.487,1.178c-.05.028-.076.028-.1-.027a1.622,1.622,0,0,0-.4-.448,3.151,3.151,0,0,0-1.362-.645,3.062,3.062,0,0,0-1.587.111,2.1,2.1,0,0,0-1.234,1.15c-.5,1.121-1.034,2.412-1.587,3.842q-.854,2.222-1.588,4.487a4.141,4.141,0,0,1-.176.505,6.915,6.915,0,0,1-2.293,3.28c-.277.224-.579.421-.883.645a5.67,5.67,0,0,1-.555.336c-.05.028-.125-.027-.074-.083.328-.422.629-.9.957-1.4a20.332,20.332,0,0,0,1.738-3.673,18.214,18.214,0,0,0,1.009-4.038,9.691,9.691,0,0,0-.126-3.141,4.15,4.15,0,0,0-1.183-2.1,3.115,3.115,0,0,0-2.092-.786,4.579,4.579,0,0,0-2.646.786,13.418,13.418,0,0,0-1.487,1.179c-.023.027-.075.027-.1-.03a1.656,1.656,0,0,0-.4-.448,3.179,3.179,0,0,0-1.362-.645,3.078,3.078,0,0,0-1.587.113,2.091,2.091,0,0,0-1.234,1.149c-.5,1.121-1.034,2.413-1.587,3.843-.505,1.345-1.008,2.775-1.487,4.178a6.512,6.512,0,0,1-1.689,2.72c-.2.2-.4.393-.605.562a1.14,1.14,0,0,1-.7.363c-.1,0-.253,0-.3-.448a5.611,5.611,0,0,1,.2-1.823,21.842,21.842,0,0,1,.755-2.5c.328-.9.681-1.793,1.008-2.608s.63-1.543.907-2.132c.276-.617.428-.982.478-1.149a1.306,1.306,0,0,0-.227-1.4,2.535,2.535,0,0,0-1.31-.813,3.788,3.788,0,0,0-1.687-.027,2.173,2.173,0,0,0-1.462,1.121c-.075.112-.151.253-.227.393-.025.057-.1.028-.126-.028a3.6,3.6,0,0,0-.327-.926,2.654,2.654,0,0,0-.983-1.036,2.987,2.987,0,0,0-1.664-.394,7.035,7.035,0,0,0-4.686,2.159,15.465,15.465,0,0,0-3.755,6.7,16.06,16.06,0,0,0-.78,4.01,9.315,9.315,0,0,0,.276,3.141A4.5,4.5,0,0,0,838.83,228a3.223,3.223,0,0,0,2.141.756,4.922,4.922,0,0,0,1.715-.308,6.154,6.154,0,0,0,1.436-.785,6.669,6.669,0,0,0,.906-.814.362.362,0,0,1,.63.169,4.073,4.073,0,0,0,.378.84,2.141,2.141,0,0,0,1.915.926,4.733,4.733,0,0,0,2.872-1.094,12.811,12.811,0,0,0,1.286-1.094.125.125,0,0,1,.2.141c-.253.841-.453,1.6-.655,2.3q-.425,1.536-.806,3.084a7.667,7.667,0,0,0-.3,1.571,2.535,2.535,0,0,0,.63,1.768,3.684,3.684,0,0,0,1.385.981,3.364,3.364,0,0,0,.983.2,2.765,2.765,0,0,0,.5-.057,1.219,1.219,0,0,0,.983-1.066c.051-.365.151-.9.3-1.515.151-.644.354-1.4.579-2.215s.454-1.711.756-2.777c.125-.477.277-.981.428-1.515a.125.125,0,0,1,.227-.027,4.1,4.1,0,0,1,.227.365,2.629,2.629,0,0,0,2.242.982h.605a10.873,10.873,0,0,0,4.182-.785,17.163,17.163,0,0,0,3.328-1.795.134.134,0,0,1,.2.139c-.277.953-.555,1.851-.781,2.692q-.426,1.537-.807,3.086a7.656,7.656,0,0,0-.3,1.571,2.536,2.536,0,0,0,.629,1.767,3.5,3.5,0,0,0,1.386.982,3.352,3.352,0,0,0,.982.2,2.787,2.787,0,0,0,.505-.057,1.246,1.246,0,0,0,.982-1.066,14.383,14.383,0,0,1,.3-1.514c.151-.645.354-1.4.555-2.216.227-.814.479-1.711.755-2.777.126-.477.277-.982.43-1.514a.125.125,0,0,1,.227-.029,4.159,4.159,0,0,1,.227.366,2.628,2.628,0,0,0,2.242.981h.605a10.852,10.852,0,0,0,4.182-.785,15.964,15.964,0,0,0,3.83-2.159,4.724,4.724,0,0,0,.555-.448.13.13,0,0,1,.2.112v.139a3.948,3.948,0,0,0,.555,2.216,2.14,2.14,0,0,0,1.915.925,4.728,4.728,0,0,0,2.872-1.093,17.638,17.638,0,0,0,2.57-2.384,25.048,25.048,0,0,0,2.015-2.636c.579-.87.957-1.487,1.185-1.824a.832.832,0,0,0,.025-.869.819.819,0,0,0-.806-.5" transform="translate(-837.243 -209.91)" fill="#fd3f22"/>
          </g>
        </g>
      </g>
      <g id="Grupo_123" data-name="Grupo 123" transform="translate(480.099 186.287)">
        <path id="Trazado_85" data-name="Trazado 85" d="M485.935,403.752l-.973,5.625h6.808l-.421,2.313h-6.807l-1,5.757h7.6l-.421,2.444H480.1l3.259-18.557h10.619l-.421,2.418Z" transform="translate(-480.099 -400.44)" fill="#fd3f22"/>
        <path id="Trazado_86" data-name="Trazado 86" d="M584.573,430.139a4.556,4.556,0,0,1,1.236,3.43,9.233,9.233,0,0,1-.158,1.656l-1.472,8.438h-3l1.42-8.122a5.121,5.121,0,0,0,.1-1.052,2.93,2.93,0,0,0-.828-2.247,3.233,3.233,0,0,0-2.3-.776,4.38,4.38,0,0,0-3.049,1.144,5.714,5.714,0,0,0-1.656,3.351v-.079l-1.367,7.781h-3.023l2.55-14.483h3.023l-.552,3.207a6.087,6.087,0,0,1,2.353-2.55,6.468,6.468,0,0,1,3.351-.894A4.632,4.632,0,0,1,584.573,430.139Z" transform="translate(-557.922 -424.212)" fill="#fd3f22"/>
        <path id="Trazado_87" data-name="Trazado 87" d="M691.942,418.039a4.284,4.284,0,0,0-.079.789,1.264,1.264,0,0,0,.42,1.078,2.313,2.313,0,0,0,1.367.315h1.472l-.5,2.6h-1.84a4.737,4.737,0,0,1-2.957-.789,3.066,3.066,0,0,1-1.012-2.576,7.765,7.765,0,0,1,.131-1.472l1.262-7.1h-2.1l.447-2.55h2.1l.631-3.6h3.023l-.631,3.6h3.5l-.447,2.55H693.2Z" transform="translate(-659.194 -403.372)" fill="#fd3f22"/>
        <path id="Trazado_88" data-name="Trazado 88" d="M755.619,429.771a6.753,6.753,0,0,1,3.3-.828l-.578,3.259h-.894a5.664,5.664,0,0,0-3.338.96,4.572,4.572,0,0,0-1.735,3.168l-.026-.027-1.288,7.36h-3.023l2.55-14.483h3.023l-.5,2.839A7.355,7.355,0,0,1,755.619,429.771Z" transform="translate(-710.797 -424.212)" fill="#fd3f22"/>
        <path id="Trazado_89" data-name="Trazado 89" d="M829.258,430.006a4.773,4.773,0,0,1,2.038,1.906,5.508,5.508,0,0,1,.7,2.773,8.491,8.491,0,0,1-.132,1.367,10.2,10.2,0,0,1-.341,1.288H820.373a6.35,6.35,0,0,0-.053.92,3.378,3.378,0,0,0,.933,2.616,3.5,3.5,0,0,0,2.458.854,4.777,4.777,0,0,0,2.667-.762,4.08,4.08,0,0,0,1.643-2.024h3.207a7.687,7.687,0,0,1-2.917,3.785,8.339,8.339,0,0,1-4.889,1.446,6.063,6.063,0,0,1-4.363-1.551,5.6,5.6,0,0,1-1.63-4.258,10.155,10.155,0,0,1,.157-1.761,9.11,9.11,0,0,1,1.6-3.877,8.183,8.183,0,0,1,2.983-2.524,8.6,8.6,0,0,1,3.877-.88A6.986,6.986,0,0,1,829.258,430.006Zm-.263,4.81a2.822,2.822,0,0,0-.959-2.313,3.665,3.665,0,0,0-2.406-.788,4.964,4.964,0,0,0-3.141,1.078,5.249,5.249,0,0,0-1.827,3.18h8.2A4.767,4.767,0,0,0,829,434.816Z" transform="translate(-770.546 -424.538)" fill="#fd3f22"/>
        <path id="Trazado_90" data-name="Trazado 90" d="M923.242,442.488a5.939,5.939,0,0,1-1.485-4.285,12.5,12.5,0,0,1,.184-1.866,9.7,9.7,0,0,1,1.512-3.837A7.687,7.687,0,0,1,926.2,430a7.33,7.33,0,0,1,3.5-.867,5.176,5.176,0,0,1,3.273.973,4.083,4.083,0,0,1,1.538,2.6l.6-3.365h2.97L935.5,443.986a9.127,9.127,0,0,1-1.446,3.587,7.651,7.651,0,0,1-2.773,2.458,7.971,7.971,0,0,1-3.772.893,6.85,6.85,0,0,1-4.652-1.446,5.42,5.42,0,0,1-1.814-3.916h2.97a2.888,2.888,0,0,0,1.078,2.01,4.077,4.077,0,0,0,2.576.723,4.773,4.773,0,0,0,3.128-1.1,5.128,5.128,0,0,0,1.708-3.207l.63-3.523a6.689,6.689,0,0,1-2.4,2.589,6.489,6.489,0,0,1-3.535.985A5.22,5.22,0,0,1,923.242,442.488Zm3.588-9.423a5.931,5.931,0,0,0-1.814,3.509,6.294,6.294,0,0,0-.105,1.183,3.533,3.533,0,0,0,.972,2.654,3.681,3.681,0,0,0,2.682.947,4.971,4.971,0,0,0,3.391-1.3,5.88,5.88,0,0,0,1.866-3.483,5.254,5.254,0,0,0,.1-1.078,3.461,3.461,0,0,0-3.679-3.706A4.938,4.938,0,0,0,926.83,433.064Z" transform="translate(-859.762 -424.377)" fill="#fd3f22"/>
        <path id="Trazado_91" data-name="Trazado 91" d="M1055.524,430.294a4.069,4.069,0,0,1,1.538,2.576l.6-3.365h3l-2.576,14.483h-3l.6-3.365a6.607,6.607,0,0,1-5.941,3.549,5.206,5.206,0,0,1-3.969-1.524,5.864,5.864,0,0,1-1.446-4.206,10.152,10.152,0,0,1,.184-1.945,9.607,9.607,0,0,1,1.511-3.825,7.768,7.768,0,0,1,2.734-2.484,7.25,7.25,0,0,1,3.483-.868A5.18,5.18,0,0,1,1055.524,430.294Zm-6.124,2.944a5.936,5.936,0,0,0-1.827,3.5,6.3,6.3,0,0,0-.105,1.183,3.533,3.533,0,0,0,.972,2.654,3.681,3.681,0,0,0,2.682.946,4.97,4.97,0,0,0,3.391-1.3,5.88,5.88,0,0,0,1.866-3.483,5.635,5.635,0,0,0,.105-1.1,3.438,3.438,0,0,0-3.654-3.68A4.955,4.955,0,0,0,1049.4,433.239Z" transform="translate(-965.919 -424.538)" fill="#fd3f22"/>
        <path id="Trazado_92" data-name="Trazado 92" d="M1178.414,394.9l-3.443,19.451h-3.023l.6-3.365a6.6,6.6,0,0,1-5.94,3.549,5.188,5.188,0,0,1-3.93-1.551,5.9,5.9,0,0,1-1.485-4.258,12.485,12.485,0,0,1,.184-1.866,9.606,9.606,0,0,1,1.512-3.825,7.762,7.762,0,0,1,2.733-2.484,7.251,7.251,0,0,1,3.483-.868,5.18,5.18,0,0,1,3.273.973,4.071,4.071,0,0,1,1.538,2.576l1.472-8.332Zm-12.156,8.7a5.933,5.933,0,0,0-1.827,3.5,6.283,6.283,0,0,0-.105,1.183,3.532,3.532,0,0,0,.972,2.654,3.681,3.681,0,0,0,2.682.946,5,5,0,0,0,3.417-1.3,5.877,5.877,0,0,0,1.866-3.483,8.6,8.6,0,0,0,.105-1.051,3.694,3.694,0,0,0-1-2.734,3.625,3.625,0,0,0-2.681-1A4.954,4.954,0,0,0,1166.258,403.6Z" transform="translate(-1066.534 -394.903)" fill="#fd3f22"/>
        <path id="Trazado_93" data-name="Trazado 93" d="M1294.386,430.912a5.688,5.688,0,0,1,1.708,4.377,10.115,10.115,0,0,1-.158,1.708,8.787,8.787,0,0,1-1.63,3.811,8.277,8.277,0,0,1-3.035,2.5,8.825,8.825,0,0,1-3.877.867,7.335,7.335,0,0,1-3.3-.71,5.157,5.157,0,0,1-2.221-2.063,6.285,6.285,0,0,1-.788-3.22,9.764,9.764,0,0,1,.157-1.682,8.8,8.8,0,0,1,1.63-3.811,8.21,8.21,0,0,1,3.062-2.5,8.982,8.982,0,0,1,3.9-.868A6.408,6.408,0,0,1,1294.386,430.912Zm-8.2,2.247a5.82,5.82,0,0,0-1.892,3.575,7.027,7.027,0,0,0-.105,1.209,3.456,3.456,0,0,0,1,2.694,3.648,3.648,0,0,0,2.55.907,4.965,4.965,0,0,0,3.272-1.222,5.818,5.818,0,0,0,1.88-3.588,6.368,6.368,0,0,0,.105-1.183,3.5,3.5,0,0,0-1-2.707,3.617,3.617,0,0,0-2.55-.92A4.952,4.952,0,0,0,1286.185,433.16Z" transform="translate(-1169.76 -424.538)" fill="#fd3f22"/>
        <path id="Trazado_94" data-name="Trazado 94" d="M1397.772,429.771a6.753,6.753,0,0,1,3.3-.828l-.578,3.259h-.894a5.663,5.663,0,0,0-3.338.96,4.572,4.572,0,0,0-1.735,3.168l-.026-.027-1.289,7.36h-3.023l2.549-14.483h3.023l-.5,2.839A7.353,7.353,0,0,1,1397.772,429.771Z" transform="translate(-1263.699 -424.212)" fill="#fd3f22"/>
      </g>
    </g>
  </g>
</svg>
