<svg xmlns="http://www.w3.org/2000/svg" width="55.931" height="53.616" viewBox="0 0 55.931 53.616">
  <g id="Icon_feather-shopping-cart" data-name="Icon feather-shopping-cart" transform="translate(1 1)">
    <path id="Trazado_129" data-name="Trazado 129" d="M16.63,32.315A2.315,2.315,0,1,1,14.315,30,2.315,2.315,0,0,1,16.63,32.315Z" transform="translate(5.705 15.486)" fill="none" stroke="#fff" stroke-linecap="round" stroke-linejoin="round" stroke-width="5"/>
    <path id="Trazado_130" data-name="Trazado 130" d="M33.13,32.315A2.315,2.315,0,1,1,30.815,30,2.315,2.315,0,0,1,33.13,32.315Z" transform="translate(14.671 15.486)" fill="none" stroke="#fff" stroke-linecap="round" stroke-linejoin="round" stroke-width="5"/>
    <path id="Trazado_131" data-name="Trazado 131" d="M1.5,1.5h9.26l6.2,31a4.63,4.63,0,0,0,4.63,3.727H44.1a4.63,4.63,0,0,0,4.63-3.727l3.7-19.423H13.075" transform="translate(0 0)" fill="none" stroke="#fff" stroke-linecap="round" stroke-linejoin="round" stroke-width="5"/>
  </g>
</svg>
