<?xml version="1.0" standalone="no"?>
<!DOCTYPE svg PUBLIC "-//W3C//DTD SVG 1.1//EN" "http://www.w3.org/Graphics/SVG/1.1/DTD/svg11.dtd" >
<svg xmlns="http://www.w3.org/2000/svg" xmlns:xlink="http://www.w3.org/1999/xlink" version="1.1">
<metadata></metadata>
<defs>
<font id="pp_object_sansbold" horiz-adv-x="491" >
<font-face units-per-em="2048" ascent="1638" descent="-410" />
<missing-glyph horiz-adv-x="503" />
<glyph horiz-adv-x="0" />
<glyph unicode="&#xd;" horiz-adv-x="61" />
<glyph horiz-adv-x="1484" d="M150 0v1458h1185v-1458h-1185zM416 231h651v996h-651v-996z" />
<glyph horiz-adv-x="1484" d="M150 0v1458h1185v-1458h-1185zM416 231h651v996h-651v-996z" />
<glyph unicode=" "  horiz-adv-x="503" />
<glyph unicode="&#x09;" horiz-adv-x="503" />
<glyph unicode="&#xa0;" horiz-adv-x="503" />
<glyph unicode="!" horiz-adv-x="600" d="M123 147q0 76 49 124t127 48t128 -48t50 -124t-50 -124t-128 -48t-127 48.5t-49 123.5zM139 1049v409h324v-409l-84 -564h-158z" />
<glyph unicode="&#x22;" horiz-adv-x="755" d="M70 1171v287h229v-287l-35 -426h-160zM457 1171v287h229v-287l-35 -426h-157z" />
<glyph unicode="#" horiz-adv-x="1878" d="M70 444v207h417l66 242h-381v209h436l113 418h258l-113 -418h287l113 418h260l-113 -418h397v-209h-452l-66 -242h416v-207h-471l-119 -444h-258l119 444h-289l-119 -444h-260l121 444h-362zM745 651h289l64 242h-287z" />
<glyph unicode="$" horiz-adv-x="1437" d="M86 479h324q0 -121 88 -190.5t245 -69.5q131 0 206 49t75 138q0 66 -42 103.5t-107.5 56t-174.5 34.5q-184 27 -302.5 60.5t-209 122.5t-90.5 251q0 182 124 303t343 152v190h314v-198q207 -41 324.5 -170t117.5 -320h-313q2 117 -78 182.5t-219 65.5q-127 0 -200 -49 t-73 -131q0 -66 45 -103.5t115 -55t188 -34.5q174 -27 292 -63.5t202 -126.5t84 -250q0 -184 -129 -305t-356 -150v-219h-314v223q-223 37 -351 171.5t-128 332.5z" />
<glyph unicode="%" horiz-adv-x="2162" d="M70 1102q0 127 55 227.5t155.5 155.5t227.5 55t226.5 -55t155.5 -155.5t56 -227.5t-56 -226.5t-155.5 -155.5t-226.5 -56t-227.5 56t-155.5 155.5t-55 226.5zM324 1102q0 -82 51 -132t133 -50t132 50t50 132t-50 132t-132 50t-133 -50t-51 -132zM416 0l1042 1520h291 l-1042 -1520h-291zM1221 418q0 127 55 226t154.5 155.5t226.5 56.5t226 -56.5t155.5 -155.5t56.5 -226t-56.5 -227.5t-155.5 -155.5t-226 -55t-226.5 55t-154.5 155.5t-55 227.5zM1475 418q0 -82 51 -132t131 -50q82 0 133 50t51 132t-51 132t-133 50q-80 0 -131 -50 t-51 -132z" />
<glyph unicode="&#x26;" horiz-adv-x="1662" d="M88 391q0 143 76 238.5t217 158.5q-115 147 -115 295q0 115 59.5 208t164 145.5t235.5 52.5q135 0 243.5 -56.5t171 -154.5t62.5 -219h-276q0 80 -55.5 134t-139.5 54q-78 0 -129 -48t-51 -124q0 -123 133 -241l420 -383q80 100 127 245h278q-66 -219 -225 -409l315 -287 h-362l-135 121q-104 -74 -234.5 -117t-255.5 -43q-151 0 -270 55.5t-186.5 152.5t-67.5 222zM383 401q0 -92 77 -148t204 -56q134 0 249 92l-366 332q-164 -68 -164 -220z" />
<glyph unicode="'" horiz-adv-x="368" d="M70 1171v287h229v-287l-35 -426h-158z" />
<glyph unicode="(" horiz-adv-x="700" d="M78 575q0 281 89 539t236 406h285q-158 -168 -251 -422t-93 -523q0 -270 93 -524t249 -420h-283q-147 147 -236 405.5t-89 538.5z" />
<glyph unicode=")" horiz-adv-x="698" d="M12 -369q158 166 250 420t92 524q0 266 -93 521.5t-249 423.5h283q147 -147 237.5 -405.5t90.5 -539.5q0 -283 -90.5 -540.5t-237.5 -403.5h-283z" />
<glyph unicode="*" horiz-adv-x="1024" d="M70 870l258 138l-258 135l104 178l246 -154l-12 291h208l-12 -291l246 154l104 -178l-258 -135l258 -138l-104 -178l-246 156l12 -291h-208l12 291l-246 -156z" />
<glyph unicode="+" horiz-adv-x="1101" d="M70 616v234h336v330h290v-330h336v-234h-336v-337h-290v337h-336z" />
<glyph unicode="," d="M70 147q0 76 49 124t127 48t128 -48t50 -124q0 -61 -43 -139l-174 -338l-113 37l113 273q-61 12 -99 58t-38 109z" />
<glyph unicode="-" horiz-adv-x="985" d="M74 512v250h839v-250h-839z" />
<glyph unicode="." horiz-adv-x="489" d="M68 147q0 76 50 124t128 48t127 -48t49 -124t-49 -124t-127 -48t-128 48.5t-50 123.5z" />
<glyph unicode="/" horiz-adv-x="933" d="M12 -471l637 1929h273l-637 -1929h-273z" />
<glyph unicode="0" horiz-adv-x="1505" d="M90 729q0 223 84 398.5t234.5 272.5t345.5 97q193 0 344 -97t235 -272.5t84 -398.5t-84 -398t-235.5 -272.5t-343.5 -97.5q-195 0 -345.5 97.5t-234.5 272.5t-84 398zM430 729q0 -139 40 -247.5t113.5 -168t170.5 -59.5q96 0 169.5 59.5t113.5 168t40 247.5t-40 247.5 t-113.5 168t-169.5 59.5t-170 -59.5t-114 -168t-40 -247.5z" />
<glyph unicode="1" horiz-adv-x="888" d="M57 821v336l402 301h284v-1458h-331v1067h-23z" />
<glyph unicode="2" horiz-adv-x="1267" d="M90 0v188l606 539q72 66 108 101.5t59.5 79.5t23.5 96q0 94 -65.5 156.5t-162.5 62.5q-111 0 -184.5 -81t-77.5 -214h-303q-4 162 67.5 292t204 203.5t298.5 73.5q154 0 276.5 -60.5t192 -166t69.5 -238.5q0 -123 -71.5 -229.5t-217.5 -231.5l-338 -292v-21h594v-258 h-1079z" />
<glyph unicode="3" horiz-adv-x="1269" d="M51 518h318q0 -125 75.5 -208t190.5 -83q111 0 182.5 67.5t71.5 170.5q0 104 -73 172t-183 68q-33 0 -67 -6.5t-56 -16.5l-74 195l299 303v20h-590v258h1010v-198l-346 -355q115 -18 206 -83.5t143 -164t52 -215.5q0 -137 -73.5 -246.5t-203.5 -172t-294 -62.5 q-162 0 -294 71.5t-210 199.5t-84 286z" />
<glyph unicode="4" horiz-adv-x="1314" d="M37 301v186l555 971h483v-901h170v-256h-170v-301h-340v301h-698zM367 557h366v619h-20z" />
<glyph unicode="5" horiz-adv-x="1296" d="M66 508h315q0 -119 77 -200t189 -81q111 0 183.5 69t72.5 169q0 111 -77.5 177.5t-211.5 66.5h-434l66 749h864v-258h-614l-27 -262h233q154 0 272 -61.5t183.5 -171t65.5 -248.5q0 -143 -74 -256t-204 -176.5t-294 -63.5q-162 0 -293 70.5t-208.5 195.5t-83.5 281z" />
<glyph unicode="6" horiz-adv-x="1329" d="M68 465q0 178 151 385l440 608h377l-387 -524q63 20 135 20q137 0 246 -59t170.5 -166.5t61.5 -245.5q0 -154 -77 -271.5t-213 -183t-313 -65.5q-172 0 -306 64.5t-209.5 178t-75.5 259.5zM410 485q0 -113 72.5 -181t187.5 -68q110 2 180 70.5t70 178.5q0 109 -72 175.5 t-182 66.5q-113 0 -184.5 -67.5t-71.5 -174.5z" />
<glyph unicode="7" horiz-adv-x="1107" d="M33 1184v274h1042v-198l-516 -1260h-352l485 1184h-659z" />
<glyph unicode="8" horiz-adv-x="1355" d="M82 395q0 137 79 233.5t206 125.5v20q-98 41 -161 124t-63 196q0 121 66.5 213t188.5 141t282 49q156 0 277.5 -51t189 -143.5t67.5 -208.5q0 -113 -62 -196t-163 -124v-20q127 -29 207 -125.5t80 -233.5q0 -127 -75 -225t-210 -152.5t-311 -54.5q-178 0 -314.5 54.5 t-210 151.5t-73.5 226zM434 436q0 -92 68.5 -149.5t177.5 -57.5q106 0 175 57.5t69 149.5t-70 150.5t-174 58.5q-109 0 -177.5 -58.5t-68.5 -150.5zM459 1051q0 -82 62.5 -133.5t158.5 -51.5q94 0 156.5 52.5t62.5 132.5t-62.5 130t-156.5 50q-96 0 -158.5 -50.5 t-62.5 -129.5z" />
<glyph unicode="9" horiz-adv-x="1327" d="M68 975q0 154 76.5 272.5t213 184t312.5 65.5q172 0 306 -64.5t209 -179t75 -260.5q0 -172 -150 -385l-440 -606h-377l385 524q-61 -20 -133 -20q-137 0 -246 59.5t-170 166t-61 243.5zM408 975q0 -109 70.5 -176.5t180.5 -67.5q115 0 188 67.5t73 176.5q0 111 -72 179.5 t-184 68.5q-113 0 -184.5 -68t-71.5 -180z" />
<glyph unicode=":" d="M70 147q0 76 49 124t127 48t127 -48t49 -124t-49 -124t-127 -48t-127 48.5t-49 123.5zM70 858q0 74 50 122t126 48t126 -48t50 -122q0 -76 -49 -124t-127 -48t-127 48t-49 124z" />
<glyph unicode=";" d="M70 858q0 74 50 122t126 48q78 0 128 -48t50 -122q0 -76 -50 -124t-128 -48t-127 48t-49 124zM72 147q0 76 49 124t127 48t127 -48t49 -124q0 -61 -41 -139l-176 -338l-113 37l115 273q-61 12 -99 58t-38 109z" />
<glyph unicode="&#x3c;" horiz-adv-x="864" d="M16 559v322l779 372v-278l-562 -244v-20l562 -246v-279z" />
<glyph unicode="=" horiz-adv-x="1101" d="M70 330v241h962v-241h-962zM70 852v242h962v-242h-962z" />
<glyph unicode="&#x3e;" horiz-adv-x="862" d="M68 186v279l561 246v20l-561 244v278l778 -372v-322z" />
<glyph unicode="?" horiz-adv-x="1230" d="M76 981q0 147 72.5 265t200.5 184.5t290 66.5q145 0 263 -55.5t184.5 -151.5t66.5 -217q0 -221 -252 -368q-63 -37 -97 -67t-53.5 -76t-19.5 -120h-278q0 154 47 238t157 160q78 53 120 99t44 112q0 76 -57 128t-141 52q-98 0 -157.5 -69.5t-55.5 -180.5h-334zM424 147 q0 74 50 122t126 48q78 0 127 -48t49 -122q0 -76 -49 -124t-127 -48t-127 48.5t-49 123.5z" />
<glyph unicode="@" horiz-adv-x="2078" d="M78 522q0 260 124 465t343 320.5t495 115.5q274 0 493.5 -114.5t343.5 -319.5t124 -461q0 -266 -108.5 -409.5t-309.5 -143.5q-113 0 -187.5 51.5t-103.5 141.5h-20q-51 -94 -156.5 -149.5t-232.5 -55.5q-104 0 -187.5 39t-130.5 109.5t-47 158.5q0 145 126 241.5 t370 125.5l223 27v43q0 166 -195 165q-182 0 -180 -159h-297q0 111 59.5 195.5t168 131.5t251.5 47q145 0 258 -48t175.5 -137t62.5 -206v-422q0 -57 26.5 -88.5t73.5 -31.5q78 0 120 99t42 273q0 207 -98 372t-271 257t-393 92q-219 0 -393 -93t-272.5 -258t-98.5 -376 q0 -201 85 -363.5t234.5 -256t340.5 -93.5q80 0 169 18.5t142 47.5v-178q-59 -29 -147 -46.5t-168 -17.5q-244 0 -439.5 116t-305 318.5t-109.5 456.5zM813 301q0 -59 48 -95t124 -36q109 0 180.5 68.5t71.5 169.5v77l-215 -26q-106 -12 -157.5 -54.5t-51.5 -103.5z" />
<glyph unicode="A" horiz-adv-x="1548" d="M37 0l493 1458h492l489 -1458h-344l-90 260h-606l-90 -260h-344zM545 510h459l-218 657h-20z" />
<glyph unicode="B" horiz-adv-x="1476" d="M147 0v1458h705q156 0 272.5 -50t180 -140t63.5 -209q0 -106 -59.5 -188.5t-151.5 -112.5v-21q111 -31 181.5 -123t70.5 -215q0 -121 -65.5 -211t-186.5 -139t-280 -49h-730zM487 258h320q111 0 182.5 52t71.5 134q0 80 -71.5 132.5t-182.5 52.5h-320v-371zM487 860h306 q100 0 163.5 47t63.5 123t-63.5 123t-163.5 47h-306v-340z" />
<glyph unicode="C" horiz-adv-x="1658" d="M78 729q0 223 100.5 398.5t277.5 272.5t400 97q180 0 335 -70.5t257 -197.5t129 -289l-317 -37q-31 135 -142.5 222t-255.5 87q-129 0 -230.5 -61t-157.5 -171t-56 -251t56 -251.5t157.5 -172t230.5 -61.5q139 0 251 85t147 218l319 -43q-25 -158 -126 -282t-257 -192.5 t-340 -68.5q-223 0 -400 97.5t-277.5 272.5t-100.5 398z" />
<glyph unicode="D" horiz-adv-x="1611" d="M147 0v1458h547q250 0 440.5 -91t295 -256t104.5 -382t-104.5 -382t-295 -256t-440.5 -91h-547zM479 266h215q150 0 263.5 56.5t176 161t62.5 245.5q0 139 -62.5 243.5t-176 162t-263.5 57.5h-215v-926z" />
<glyph unicode="E" horiz-adv-x="1320" d="M147 0v1458h1076v-274h-744v-322h688v-239h-688v-349h764v-274h-1096z" />
<glyph unicode="F" horiz-adv-x="1247" d="M147 0v1458h1045v-291h-703v-321h615v-266h-615v-580h-342z" />
<glyph unicode="G" horiz-adv-x="1736" d="M78 729q0 223 103.5 398.5t286.5 272.5t415 97q162 0 306 -57.5t244.5 -158.5t137.5 -228l-311 -70q-33 100 -140.5 164.5t-236.5 64.5q-133 0 -239.5 -61t-166 -171t-59.5 -251q0 -139 61.5 -250.5t169 -175t244.5 -63.5q115 0 212 48t156.5 131t63.5 183h-580v225h908 q4 -66 4 -96q0 -227 -97.5 -403t-273.5 -273.5t-403 -97.5q-232 0 -415 98.5t-286.5 274.5t-103.5 399z" />
<glyph unicode="H" horiz-adv-x="1581" d="M147 0v1458h340v-565h607v565h340v-1458h-340v618h-607v-618h-340z" />
<glyph unicode="I" horiz-adv-x="636" d="M147 0v1458h340v-1458h-340z" />
<glyph unicode="J" horiz-adv-x="985" d="M66 8v260q96 -26 189 -26h7q109 0 176.5 70.5t67.5 189.5v956h340v-991q0 -145 -63.5 -259t-175 -177.5t-251.5 -63.5q-71 0 -151 11.5t-139 29.5z" />
<glyph unicode="K" horiz-adv-x="1425" d="M147 0v1458h342v-594h21l473 594h406l-586 -700l598 -758h-408l-483 643h-21v-643h-342z" />
<glyph unicode="L" horiz-adv-x="1208" d="M147 0v1458h340v-1167h666v-291h-1006z" />
<glyph unicode="M" horiz-adv-x="2027" d="M147 0v1458h471l383 -1036h21l381 1036h475v-1458h-332v1004h-20l-375 -1004h-277l-374 1004h-21v-1004h-332z" />
<glyph unicode="N" horiz-adv-x="1585" d="M147 0v1458h394l553 -1018h20v1018h324v-1458h-394l-552 1016h-21v-1016h-324z" />
<glyph unicode="O" horiz-adv-x="1767" d="M76 729q0 227 102.5 401.5t285.5 270.5t419 96t419 -96t285.5 -270.5t102.5 -401.5q0 -229 -101.5 -403t-285 -269.5t-420.5 -95.5q-238 0 -421 95.5t-284.5 269.5t-101.5 403zM416 729q0 -141 59.5 -251.5t166 -172t241.5 -61.5t241.5 61.5t166 172t59.5 251.5 t-59.5 251t-166 171t-241.5 61t-241.5 -61t-166 -171t-59.5 -251z" />
<glyph unicode="P" horiz-adv-x="1431" d="M150 0v1458h641q176 0 308 -59.5t203.5 -169t71.5 -256.5q0 -150 -71.5 -261.5t-204.5 -173t-310 -61.5h-303v-477h-335zM485 735h277q125 0 198.5 63.5t73.5 170.5q0 106 -73.5 168.5t-198.5 62.5h-277v-465z" />
<glyph unicode="Q" horiz-adv-x="1769" d="M78 729q0 227 101.5 401.5t284.5 270.5t419 96q238 0 421 -96t284.5 -270.5t101.5 -401.5q0 -152 -46.5 -283t-134.5 -231l238 -215h-322l-88 82q-88 -59 -205.5 -92t-248.5 -33q-236 0 -419 96.5t-284.5 271.5t-101.5 404zM418 729q0 -141 59.5 -252.5t165 -174 t240.5 -62.5q123 0 229 59l-422 373h320l258 -232q82 121 82 289q0 141 -59.5 251t-166 171t-241.5 61t-240.5 -61t-165 -171t-59.5 -251z" />
<glyph unicode="R" horiz-adv-x="1495" d="M147 0v1458h697q170 0 298 -59.5t198.5 -168t70.5 -251.5q0 -117 -52 -212t-143.5 -154.5t-207.5 -73.5l-17 -2l467 -537h-389l-418 512h-164v-512h-340zM487 752h312q125 0 199.5 60t74.5 165q0 102 -75.5 162.5t-198.5 60.5h-312v-448z" />
<glyph unicode="S" horiz-adv-x="1447" d="M84 479h324q2 -121 90 -190.5t245 -69.5q131 0 206 49t75 138q0 66 -42 103.5t-107.5 56t-174.5 34.5q-184 27 -302.5 60.5t-209 122.5t-90.5 251q0 139 74 243.5t210 162t320 57.5q186 0 326.5 -62.5t216.5 -177t76 -266.5h-313v6q0 113 -78 177q-80 66 -219 65 q-127 0 -200 -49t-73 -131q0 -66 45 -103.5t115 -55t188 -34.5q174 -27 292 -63.5t202 -126.5t84 -250q0 -141 -77 -245.5t-219 -162t-335 -57.5q-194 0 -340.5 64.5t-227.5 181.5t-81 272z" />
<glyph unicode="T" horiz-adv-x="1312" d="M20 1176v282h1270v-282h-465v-1176h-340v1176h-465z" />
<glyph unicode="U" horiz-adv-x="1579" d="M137 584v874h340v-866q0 -156 87 -252t227 -96q137 0 224 97t87 251v866h340v-874q0 -184 -83 -325.5t-230.5 -219.5t-337.5 -78q-191 0 -339.5 78t-231.5 219t-83 326z" />
<glyph unicode="V" horiz-adv-x="1529" d="M37 1458h348l369 -1208h20l369 1208h350l-463 -1458h-530z" />
<glyph unicode="W" horiz-adv-x="2402" d="M66 1458h335l310 -1155h20l293 1155h358l291 -1155h21l309 1155h336l-404 -1458h-483l-240 1014h-20l-240 -1014h-483z" />
<glyph unicode="X" horiz-adv-x="1595" d="M57 0l482 770l-469 688h387l325 -506h21l330 506h393l-490 -688l502 -770h-391l-344 573h-21l-340 -573h-385z" />
<glyph unicode="Y" horiz-adv-x="1437" d="M37 1458h354l322 -647h20l309 647h359l-508 -950v-508h-340v508z" />
<glyph unicode="Z" horiz-adv-x="1353" d="M86 0v172l707 991v21h-695v274h1149v-172l-694 -991v-21h715v-274h-1182z" />
<glyph unicode="[" horiz-adv-x="854" d="M147 -369v1889h693v-207h-400v-1475h400v-207h-693z" />
<glyph unicode="\" horiz-adv-x="931" d="M12 1458h271l637 -1929h-271z" />
<glyph unicode="]" horiz-adv-x="851" d="M12 -162h402v1475h-402v207h693v-1889h-693v207z" />
<glyph unicode="^" horiz-adv-x="1189" d="M70 819l364 639h322l364 -639h-280l-234 451h-20l-232 -451h-284z" />
<glyph unicode="_" horiz-adv-x="1024" d="M0 0h1024v-219h-1024v219z" />
<glyph unicode="`" horiz-adv-x="630" d="M70 1520h278l215 -312h-239z" />
<glyph unicode="a" horiz-adv-x="1171" d="M49 274q0 297 496 359l223 26v43q0 76 -50 122t-140 46q-84 0 -136 -44q-50 -42 -49 -115v-6h-297q0 172 132 274t354 102q223 0 356 -105.5t133 -283.5v-692h-303v133h-20q-49 -78 -136.5 -119t-199.5 -41q-164 0 -263.5 81t-99.5 220zM346 299q0 -59 44 -93t122 -34 q113 0 184.5 65.5t71.5 163.5v74l-215 -26q-106 -12 -156.5 -52.5t-50.5 -97.5z" />
<glyph unicode="b" horiz-adv-x="1335" d="M115 0v1520h303v-602h20q55 80 140.5 121.5t191.5 41.5q141 0 255 -70.5t177.5 -196.5t63.5 -290t-63.5 -291t-176.5 -196.5t-256 -69.5q-217 0 -332 166h-20v-133h-303zM406 524q0 -127 78.5 -213t199.5 -86q119 0 198 86t79 213t-78 212t-199 85t-199.5 -85t-78.5 -212 z" />
<glyph unicode="c" horiz-adv-x="1247" d="M70 524q0 166 71.5 292t200.5 195.5t297 69.5q141 0 257 -50t189.5 -142t90.5 -215l-283 -37q-20 86 -91 140t-159 54q-117 0 -193.5 -86t-76.5 -221t75.5 -221t192.5 -86q90 0 159.5 54.5t92.5 138.5l285 -35q-18 -123 -93 -215t-191 -142.5t-255 -50.5 q-166 0 -295 69.5t-201.5 196.5t-72.5 291z" />
<glyph unicode="d" horiz-adv-x="1335" d="M70 524q0 164 63.5 290t176 196.5t253.5 70.5q109 0 194 -42t140 -121h21v602h303v-1520h-303v133h-21q-115 -166 -332 -166q-143 0 -255.5 69.5t-176 196.5t-63.5 291zM373 524q0 -127 79.5 -213t198.5 -86q121 0 199 86t78 213t-78 212t-199 85t-199.5 -85t-78.5 -212z " />
<glyph unicode="e" horiz-adv-x="1280" d="M70 532q0 162 73.5 287t204.5 193.5t299 68.5q166 0 294 -69.5t198.5 -194.5t70.5 -289q0 -70 -4 -92h-823q18 -113 93 -178t186 -65q86 0 151.5 38.5t99.5 104.5l258 -66q-49 -141 -190 -222t-332 -81q-168 0 -300 71t-205.5 200t-73.5 294zM381 625h520 q-14 102 -86 166.5t-176 64.5q-102 0 -171 -62.5t-87 -168.5z" />
<glyph unicode="f" horiz-adv-x="800" d="M57 827v222h148v125q0 170 92 274t244 104q96 0 202 -32v-242q-53 14 -100 14q-61 0 -98 -34.5t-37 -94.5v-114h235v-222h-235v-827h-303v827h-148z" />
<glyph unicode="g" horiz-adv-x="1335" d="M70 524q0 166 62.5 292t174 194.5t256.5 68.5q211 0 342 -164h21v134h295v-1037q0 -242 -154 -379t-418 -137q-229 0 -378.5 96.5t-188.5 272.5l293 57q29 -86 98.5 -135t167.5 -49q127 0 202 76.5t75 205.5v117h-21q-132 -151 -329 -151h-3q-143 0 -255.5 67.5 t-176 189.5t-63.5 281zM373 524q0 -127 78.5 -209t199.5 -82t199 82t78 209q0 129 -78 213t-199 84t-199.5 -84t-78.5 -213z" />
<glyph unicode="h" horiz-adv-x="1243" d="M117 0v1520h303v-613h20q121 174 305 174q117 0 207 -56t140.5 -154.5t50.5 -223.5v-647h-303v602q0 98 -54.5 158.5t-144.5 60.5q-92 0 -156.5 -65.5t-64.5 -165.5v-590h-303z" />
<glyph unicode="i" horiz-adv-x="555" d="M96 1372q0 78 51.5 128t131.5 50t131 -50t51 -128t-51.5 -128t-130.5 -50q-80 0 -131.5 50t-51.5 128zM127 0v1049h303v-1049h-303z" />
<glyph unicode="j" horiz-adv-x="569" d="M-141 -201q55 -16 125 -16q66 0 105.5 42t39.5 107v1117h303v-1143q0 -111 -44 -198t-124 -135t-180 -48q-57 0 -119.5 9t-105.5 24v241zM98 1372q0 78 51.5 128t131.5 50t131 -50t51 -128t-51.5 -128t-130.5 -50q-80 0 -131.5 50t-51.5 128z" />
<glyph unicode="k" horiz-adv-x="1153" d="M117 0v1520h303v-879h20l336 408h367l-436 -504l444 -545h-369l-342 446h-20v-446h-303z" />
<glyph unicode="l" horiz-adv-x="532" d="M115 0v1520h303v-1520h-303z" />
<glyph unicode="m" horiz-adv-x="1908" d="M115 0v1049h301v-156h20q45 86 125 137t178 51q102 0 191.5 -54t130.5 -144h20q49 92 134 144t196 52q115 0 205 -54t141 -152.5t51 -223.5v-649h-303v598q0 96 -55 158.5t-141 64.5q-88 0 -144.5 -62.5t-56.5 -160.5v-598h-305v598q0 102 -51.5 162.5t-137.5 60.5 q-90 0 -143 -61.5t-53 -161.5v-598h-303z" />
<glyph unicode="n" horiz-adv-x="1241" d="M117 0v1049h303v-148h20q117 178 305 178q117 0 207 -56t139.5 -155.5t49.5 -224.5v-643h-303v600q0 98 -53.5 158.5t-143.5 60.5q-92 0 -156.5 -65.5t-64.5 -163.5v-590h-303z" />
<glyph unicode="o" horiz-adv-x="1298" d="M68 524q0 168 72.5 294t203.5 194.5t305 68.5q172 0 304 -68.5t205 -194.5t73 -294t-73 -294t-205 -194.5t-304 -68.5q-174 0 -305 68.5t-203.5 194.5t-72.5 294zM371 524q0 -131 77.5 -215t200.5 -84q121 0 199 84t78 215t-78 214t-199 83q-123 0 -200.5 -83t-77.5 -214 z" />
<glyph unicode="p" horiz-adv-x="1335" d="M115 -471v1520h303v-134h20q115 166 332 166q143 0 256 -69.5t176.5 -196.5t63.5 -291t-63.5 -289.5t-177.5 -196.5t-255 -71q-106 0 -191 42t-141 122h-20v-602h-303zM406 524q0 -127 78.5 -213t199.5 -86t199 86t78 213t-79 212t-198 85q-121 0 -199.5 -85t-78.5 -212z " />
<glyph unicode="q" horiz-adv-x="1335" d="M70 524q0 164 63.5 291t176 196.5t255.5 69.5q217 0 332 -166h21v134h303v-1520h-303v602h-21q-55 -80 -140 -122t-194 -42q-141 0 -253.5 71t-176 196.5t-63.5 289.5zM373 524q0 -127 78.5 -213t199.5 -86t199 86t78 213t-78 212t-199 85q-119 0 -198.5 -85t-79.5 -212z " />
<glyph unicode="r" horiz-adv-x="860" d="M117 0v1049h299v-144h22q35 74 105.5 119t152.5 45q66 0 119 -27v-272q-41 18 -89 28.5t-83 10.5q-100 0 -161.5 -76t-61.5 -196v-537h-303z" />
<glyph unicode="s" horiz-adv-x="1144" d="M74 350h268q0 -84 64.5 -135t175.5 -51q86 0 138 34.5t52 94.5q0 66 -57.5 87t-177.5 34q-133 14 -224.5 37.5t-159 91t-67.5 192.5q0 160 128 255t339 95q139 0 249.5 -43t172 -123.5t61.5 -187.5h-276q-2 70 -58.5 112t-148.5 42q-84 0 -135 -34t-51 -91 q0 -45 35.5 -68.5t81.5 -32t157 -20.5q121 -14 212 -42t153.5 -94.5t62.5 -183.5q0 -168 -132 -262t-364 -94q-233 0 -366 103.5t-133 283.5z" />
<glyph unicode="t" horiz-adv-x="817" d="M49 827v222h156l59 331h238l-2 -331h239v-222h-239v-477q0 -68 37.5 -107.5t101.5 -39.5q47 0 109 14v-217q-43 -14 -100.5 -23.5t-104.5 -9.5q-158 0 -252 102.5t-94 268.5v489h-148z" />
<glyph unicode="u" horiz-adv-x="1241" d="M100 406v643h303v-600q0 -98 53.5 -159t143.5 -61q92 0 156.5 65.5t64.5 164.5v590h303v-1049h-303v147h-20q-117 -178 -305 -178q-117 0 -207 56.5t-139.5 156t-49.5 224.5z" />
<glyph unicode="v" horiz-adv-x="1191" d="M12 1049h320l254 -801h20l256 801h318l-365 -1049h-438z" />
<glyph unicode="w" horiz-adv-x="1824" d="M31 1049h309l213 -746h20l187 746h303l201 -752h20l209 752h301l-317 -1049h-396l-159 694h-21l-158 -694h-397z" />
<glyph unicode="x" horiz-adv-x="1210" d="M18 0l371 545l-352 504h338l221 -330h20l222 330h338l-353 -504l371 -545h-348l-230 362h-20l-229 -362h-349z" />
<glyph unicode="y" horiz-adv-x="1196" d="M14 1049h326l281 -670h20l227 670h316l-406 -1086q-82 -219 -179 -327.5t-255 -108.5q-51 0 -112.5 10t-104.5 27l2 243q33 -14 77 -22t79 -8q88 0 135 55t88 158z" />
<glyph unicode="z" horiz-adv-x="1083" d="M53 0v147l525 629v23h-504v250h934v-150l-504 -629v-20h524v-250h-975z" />
<glyph unicode="{" horiz-adv-x="802" d="M78 446v277h20q59 0 97 38t38 97v406q0 115 71 185.5t185 70.5h302v-207h-123q-63 0 -103.5 -39t-40.5 -105v-340q0 -100 -62.5 -163.5t-164.5 -69.5v-21q102 -6 164.5 -69.5t62.5 -163.5v-360q0 -66 40 -105t104 -39h123v-207h-302q-115 0 -185.5 71t-70.5 185v424 q0 61 -37.5 98t-97.5 37h-20z" />
<glyph unicode="|" horiz-adv-x="569" d="M150 -471v1991h272v-1991h-272z" />
<glyph unicode="}" horiz-adv-x="800" d="M12 -162h123q66 0 105 39t39 105v360q0 100 62 163.5t165 69.5v21q-102 6 -164.5 69.5t-62.5 163.5v340q0 66 -39 105t-105 39h-123v207h301q115 0 185.5 -71t70.5 -185v-406q0 -59 37 -97t99 -38h20v-277h-20q-61 0 -98.5 -36.5t-37.5 -98.5v-424q0 -115 -70.5 -185.5 t-185.5 -70.5h-301v207z" />
<glyph unicode="~" horiz-adv-x="1306" d="M70 680q63 80 155 130t174 50q68 0 137.5 -31.5t161.5 -89.5q86 -53 136.5 -76.5t97.5 -23.5q57 0 114.5 31.5t96.5 83.5l94 -191q-61 -80 -151.5 -130t-172.5 -50q-67 0 -132.5 29.5t-166.5 89.5q-82 49 -138 75.5t-105 26.5q-55 0 -110.5 -31.5t-98.5 -85.5z" />
<glyph unicode="&#xa1;" horiz-adv-x="600" d="M123 848q0 76 49 124t127 48t128 -48t50 -124t-50 -124t-128 -48t-127 48t-49 124zM141 -78l80 580h158l78 -580v-393h-316v393z" />
<glyph unicode="&#xa2;" horiz-adv-x="1247" d="M70 524q2 211 118.5 356.5t311.5 186.5v190h270v-188q166 -31 275.5 -135.5t130.5 -259.5l-283 -37q-20 86 -91 140t-159 54q-117 0 -193.5 -86t-76.5 -221t75.5 -221t192.5 -86q90 0 160.5 54.5t93.5 138.5l283 -35q-25 -156 -134.5 -260.5t-273.5 -134.5v-213h-270v215 q-195 41 -312.5 186t-117.5 356z" />
<glyph unicode="&#xa3;" horiz-adv-x="1302" d="M70 0v291q98 25 153.5 97.5t65.5 236.5h-199v206h205v224q0 127 59.5 227t164 157.5t235.5 57.5q135 0 243.5 -60.5t171 -169t66.5 -243.5h-277q-2 94 -54 155.5t-130 61.5q-74 0 -119 -56.5t-45 -142.5v-211h457v-206h-471q-18 -154 -74.5 -230t-159.5 -125v-20h869 v-250h-1161z" />
<glyph unicode="&#xa4;" horiz-adv-x="1425" d="M70 20l188 175q-102 137 -102 323q0 184 102 322l-186 176l112 117l193 -181q143 98 336 99q193 0 340 -99l194 178l109 -116l-189 -174q102 -137 103 -322q0 -186 -103 -323l191 -175l-111 -116l-194 182q-145 -100 -340 -100q-193 0 -336 98l-195 -180zM383 518 q0 -150 92 -247t238 -97q94 0 169.5 44t118.5 123t43 177t-43 177t-118.5 123t-169.5 44t-169 -44t-118 -123t-43 -177z" />
<glyph unicode="&#xa5;" horiz-adv-x="1519" d="M57 1458h373l326 -665h20l309 665h377l-458 -833h352v-170h-420v-121h420v-170h-420v-164h-342v164h-424v170h424v121h-424v170h352z" />
<glyph unicode="&#xa6;" horiz-adv-x="567" d="M147 377h273v-848h-273v848zM147 672v848h273v-848h-273z" />
<glyph unicode="&#xa7;" horiz-adv-x="1263" d="M88 522q0 96 63.5 171t165.5 100q-76 33 -123 107.5t-47 170.5q0 109 59.5 194t165 132t242.5 47q203 0 335 -104.5t147 -276.5h-271q0 78 -60 127t-155 49q-80 0 -131 -34t-51 -87q0 -72 73.5 -105.5t227.5 -64.5q145 -31 232.5 -60.5t151 -90t63.5 -162.5 q0 -98 -71 -173t-183 -102q86 -33 138 -107.5t52 -172.5q0 -113 -62.5 -204t-173 -142t-249.5 -51q-138 0 -249.5 51t-174 140t-60.5 202h265q4 -78 68.5 -129t162.5 -51q80 0 133 36.5t53 94.5q0 57 -41 91t-100 51t-166 40q-127 23 -217 54.5t-151.5 94t-61.5 164.5z M367 600q0 -70 62.5 -101.5t164.5 -47.5l106 -21q80 4 132.5 42t52.5 91q0 68 -61.5 97.5t-157.5 41.5q-51 10 -127 29q-74 -6 -123 -45t-49 -86z" />
<glyph unicode="&#xa8;" horiz-adv-x="987" d="M70 1348q0 68 45 110.5t112 42.5q70 0 115 -43t45 -110q0 -66 -45 -110t-115 -44q-67 0 -112 44t-45 110zM600 1348q0 68 45 110.5t115 42.5t114 -43t44 -110q0 -66 -44.5 -110t-113.5 -44q-70 0 -115 44t-45 110z" />
<glyph unicode="&#xa9;" horiz-adv-x="2002" d="M78 526q0 258 116.5 460t326.5 314.5t480 112.5t480.5 -111.5t327 -313.5t116.5 -462t-116.5 -462.5t-326.5 -315.5t-481 -113q-270 0 -480 113t-326.5 315.5t-116.5 462.5zM285 526q0 -205 91 -366.5t254 -251.5t371 -90q209 0 372 90t254 252t91 366q0 203 -91 364 t-254 251t-372 90t-371.5 -90t-253.5 -251t-91 -364zM465 524q0 160 69.5 286t194.5 196.5t285 70.5q127 0 235.5 -52t181 -144.5t91.5 -206.5l-205 -35q-27 106 -112 175t-191 69q-90 0 -163 -46t-114 -127t-41 -186q0 -102 41 -184t115 -128t166 -46q113 0 200 71.5 t109 184.5l195 -39q-16 -119 -88 -212t-181.5 -146.5t-238.5 -53.5q-156 0 -282 70t-196.5 195.5t-70.5 287.5z" />
<glyph unicode="&#xab;" horiz-adv-x="1394" d="M72 532l374 517h324l-385 -517l385 -532h-324zM623 532l374 517h324l-385 -517l385 -532h-324z" />
<glyph unicode="&#xac;" horiz-adv-x="1286" d="M70 526v244h1126v-627h-221v383h-905z" />
<glyph unicode="&#xad;" horiz-adv-x="985" d="M74 512v250h839v-250h-839z" />
<glyph unicode="&#xae;" horiz-adv-x="2002" d="M78 526q0 258 116.5 460t326.5 314.5t480 112.5t480.5 -111.5t327 -313.5t116.5 -462t-116.5 -462.5t-326.5 -315.5t-481 -113q-270 0 -480 113t-326.5 315.5t-116.5 462.5zM285 526q0 -205 91 -366.5t254 -251.5t371 -90q209 0 372 90t254 252t91 366q0 203 -91 364 t-254 251t-372 90t-371.5 -90t-253.5 -251t-91 -364zM610 20v1029h480q106 0 190 -41t131 -113t47 -164q0 -121 -83 -205t-212 -94l-12 -2l295 -410h-260l-254 390h-105v-390h-217zM827 571h230q78 0 128 44t50 114q0 68 -51 111t-127 43h-230v-312z" />
<glyph unicode="&#xaf;" horiz-adv-x="829" d="M70 1245v197h692v-197h-692z" />
<glyph unicode="&#xb0;" horiz-adv-x="1044" d="M70 1112q0 127 56 224.5t159.5 150.5t238.5 53q133 0 236.5 -53t160 -150.5t56.5 -224.5t-56.5 -224t-160 -150.5t-236.5 -53.5q-135 0 -238.5 53.5t-159.5 150.5t-56 224zM289 1112q0 -106 64.5 -170.5t170.5 -64.5q105 0 169.5 64.5t64.5 170.5t-64.5 171t-169.5 65 q-106 0 -170.5 -64.5t-64.5 -171.5z" />
<glyph unicode="&#xb1;" horiz-adv-x="1101" d="M70 217v217h962v-217h-962zM70 803v219h354v213h256v-213h352v-219h-352v-223h-256v223h-354z" />
<glyph unicode="&#xb4;" horiz-adv-x="628" d="M68 1208l215 312h278l-254 -312h-239z" />
<glyph unicode="&#xb5;" horiz-adv-x="1251" d="M115 -422v1471h303v-578q0 -109 55 -168t150 -59q88 0 148 61.5t60 165.5v578h306v-1049h-293v113q-37 -59 -97.5 -91t-132.5 -32q-63 0 -114 23.5t-82 72.5v-508h-303z" />
<glyph unicode="&#xb6;" horiz-adv-x="1587" d="M70 1036q0 125 57 220.5t162.5 148.5t242.5 53h934v-219h-196v-1673h-266v1673h-203v-1673h-269v1057q-137 0 -242.5 51t-162.5 145t-57 217z" />
<glyph unicode="&#xb7;" d="M70 614q0 74 50 122t126 48q78 0 128 -48t50 -122q0 -76 -50 -124t-128 -48t-127 48.5t-49 123.5z" />
<glyph unicode="&#xb8;" horiz-adv-x="606" d="M70 -315l129 51q8 -33 37.5 -54.5t64.5 -21.5q37 0 60.5 21.5t23.5 52.5q0 39 -33 63.5t-82 24.5h-106l37 221h153l-22 -135q90 -4 148.5 -56.5t58.5 -127.5q0 -82 -64.5 -134.5t-167.5 -52.5q-90 0 -155.5 41t-81.5 107z" />
<glyph unicode="&#xbb;" horiz-adv-x="1392" d="M76 0l385 532l-385 517h323l373 -517l-373 -532h-323zM627 0l385 532l-385 517h323l373 -517l-373 -532h-323z" />
<glyph unicode="&#xbf;" horiz-adv-x="1159" d="M43 -57q0 225 250 368q63 39 98 69t53.5 75t18.5 118h278q0 -154 -47 -236.5t-157 -158.5q-78 -51 -120 -99t-44 -112q0 -78 57 -130t141 -52q100 0 158.5 70.5t54.5 179.5h334q0 -147 -71.5 -265t-199.5 -183.5t-290 -65.5q-147 0 -264 55t-183.5 151.5t-66.5 215.5z M430 870q0 76 50 124t128 48q76 0 126 -48t50 -124t-50 -124t-126 -48q-78 0 -128 48.5t-50 123.5z" />
<glyph unicode="&#xc0;" horiz-adv-x="1548" d="M37 0l493 1458h492l489 -1458h-344l-90 260h-606l-90 -260h-344zM383 1849h301l227 -247h-260zM545 510h459l-218 657h-20z" />
<glyph unicode="&#xc1;" horiz-adv-x="1548" d="M37 0l493 1458h492l489 -1458h-344l-90 260h-606l-90 -260h-344zM545 510h459l-218 657h-20zM637 1602l227 247h301l-268 -247h-260z" />
<glyph unicode="&#xc2;" horiz-adv-x="1548" d="M37 0l493 1458h492l489 -1458h-344l-90 260h-606l-90 -260h-344zM401 1602l215 249h314l217 -249h-225l-136 122h-22l-137 -122h-226zM545 510h459l-218 657h-20z" />
<glyph unicode="&#xc3;" horiz-adv-x="1548" d="M37 0l493 1458h492l489 -1458h-344l-90 260h-606l-90 -260h-344zM358 1747q45 74 111 116t147 42q55 0 95.5 -16.5t91.5 -49.5q43 -25 65.5 -35t49.5 -10q39 0 73.5 24.5t57.5 65.5l127 -88q-102 -166 -263 -166q-59 0 -102 17.5t-88 50.5q-39 23 -59.5 33t-47.5 10 q-37 0 -71.5 -24.5t-59.5 -65.5zM545 510h459l-218 657h-20z" />
<glyph unicode="&#xc4;" horiz-adv-x="1548" d="M37 0l493 1458h492l489 -1458h-344l-90 260h-606l-90 -260h-344zM367 1737q0 66 44 107.5t113 41.5q68 0 112 -42t44 -107q0 -68 -44 -111t-112 -43q-69 0 -113 43t-44 111zM545 510h459l-218 657h-20zM868 1737q0 66 44 107.5t112 41.5q70 0 114 -42t44 -107 q0 -68 -44 -111t-114 -43q-68 0 -112 43t-44 111z" />
<glyph unicode="&#xc5;" horiz-adv-x="1548" d="M37 0l493 1458h492l489 -1458h-344l-90 260h-606l-90 -260h-344zM545 510h459l-218 657h-20zM547 1772q0 86 63.5 140t163.5 54t162.5 -54t62.5 -140t-62.5 -140.5t-162.5 -54.5t-163.5 54.5t-63.5 140.5zM672 1772q0 -41 28.5 -68t73.5 -27t74 27t29 68t-29 67.5 t-74 26.5t-73.5 -27t-28.5 -67z" />
<glyph unicode="&#xc6;" horiz-adv-x="2007" d="M37 0l717 1458h1167v-274h-590v-318h508v-239h-508v-353h611v-274h-924v244h-481l-121 -244h-379zM649 485h369v736h-21z" />
<glyph unicode="&#xc7;" horiz-adv-x="1658" d="M78 729q0 223 100.5 398.5t277.5 272.5t400 97q180 0 336 -70.5t258 -198.5t129 -290l-319 -35q-31 135 -143.5 222t-254.5 87q-129 0 -230.5 -61t-157.5 -171t-56 -251t56 -251.5t157.5 -172t230.5 -61.5q139 0 252 85t148 218l317 -43q-25 -150 -116 -267.5 t-232 -189.5t-309 -84l-9 -55q88 -2 146.5 -54.5t58.5 -129.5q0 -82 -63.5 -134.5t-165.5 -52.5q-90 0 -155.5 41t-84.5 107l129 51q8 -33 38 -54.5t67 -21.5t60.5 21.5t23.5 52.5q0 39 -33 63.5t-84 24.5h-105l23 143q-201 18 -358.5 120.5t-244.5 269.5t-87 374z" />
<glyph unicode="&#xc8;" horiz-adv-x="1320" d="M147 0v1458h1076v-274h-744v-322h688v-239h-688v-349h764v-274h-1096zM305 1849h301l225 -247h-258z" />
<glyph unicode="&#xc9;" horiz-adv-x="1320" d="M147 0v1458h1076v-274h-744v-322h688v-239h-688v-349h764v-274h-1096zM559 1602l227 247h301l-270 -247h-258z" />
<glyph unicode="&#xca;" horiz-adv-x="1320" d="M147 0v1458h1076v-274h-744v-322h688v-239h-688v-349h764v-274h-1096zM322 1602l217 249h313l217 -249h-225l-137 122h-23l-135 -122h-227z" />
<glyph unicode="&#xcb;" horiz-adv-x="1320" d="M147 0v1458h1076v-274h-744v-322h688v-239h-688v-349h764v-274h-1096zM289 1737q0 66 44 107.5t111 41.5q70 0 114 -42t44 -107q0 -68 -44 -111t-114 -43q-67 0 -111 43t-44 111zM791 1737q0 66 44 107.5t111 41.5q70 0 113 -42t43 -107q0 -68 -43 -111t-113 -43 q-67 0 -111 43t-44 111z" />
<glyph unicode="&#xcc;" horiz-adv-x="636" d="M-72 1849h301l226 -247h-258zM150 0v1458h339v-1458h-339z" />
<glyph unicode="&#xcd;" horiz-adv-x="636" d="M150 0v1458h339v-1458h-339zM182 1602l226 247h301l-269 -247h-258z" />
<glyph unicode="&#xce;" horiz-adv-x="636" d="M-55 1602l217 249h313l217 -249h-225l-137 122h-23l-135 -122h-227zM150 0v1458h339v-1458h-339z" />
<glyph unicode="&#xcf;" horiz-adv-x="636" d="M-88 1737q0 66 44 107.5t112 41.5q70 0 112.5 -42t42.5 -107q0 -68 -43 -111t-112 -43q-68 0 -112 43t-44 111zM150 0v1458h339v-1458h-339zM414 1737q0 66 44 107.5t111 41.5q70 0 113 -42t43 -107q0 -68 -43 -111t-113 -43q-67 0 -111 43t-44 111z" />
<glyph unicode="&#xd1;" horiz-adv-x="1585" d="M147 0v1458h394l553 -1018h20v1018h324v-1458h-394l-552 1016h-21v-1016h-324zM406 1747q45 74 111.5 116t148.5 42q53 0 91 -15.5t93 -48.5q39 -25 63.5 -36t51.5 -11q41 0 74.5 24.5t56.5 65.5l127 -88q-100 -166 -262 -166q-58 0 -100 17.5t-91 50.5q-39 23 -59.5 33 t-44.5 10q-37 0 -73 -24.5t-61 -65.5z" />
<glyph unicode="&#xd2;" horiz-adv-x="1767" d="M76 729q0 227 102.5 401.5t285.5 270.5t419 96t419 -96t285.5 -270.5t102.5 -401.5q0 -229 -101.5 -403t-285 -269.5t-420.5 -95.5q-238 0 -421 95.5t-284.5 269.5t-101.5 403zM416 729q0 -141 59.5 -251.5t166 -172t241.5 -61.5t241.5 61.5t166 172t59.5 251.5 t-59.5 251t-166 171t-241.5 61t-241.5 -61t-166 -171t-59.5 -251zM494 1849h301l225 -247h-258z" />
<glyph unicode="&#xd3;" horiz-adv-x="1767" d="M76 729q0 227 102.5 401.5t285.5 270.5t419 96t419 -96t285.5 -270.5t102.5 -401.5q0 -229 -101.5 -403t-285 -269.5t-420.5 -95.5q-238 0 -421 95.5t-284.5 269.5t-101.5 403zM416 729q0 -141 59.5 -251.5t166 -172t241.5 -61.5t241.5 61.5t166 172t59.5 251.5 t-59.5 251t-166 171t-241.5 61t-241.5 -61t-166 -171t-59.5 -251zM748 1602l227 247h301l-270 -247h-258z" />
<glyph unicode="&#xd4;" horiz-adv-x="1767" d="M76 729q0 227 102.5 401.5t285.5 270.5t419 96t419 -96t285.5 -270.5t102.5 -401.5q0 -229 -101.5 -403t-285 -269.5t-420.5 -95.5q-238 0 -421 95.5t-284.5 269.5t-101.5 403zM416 729q0 -141 59.5 -251.5t166 -172t241.5 -61.5t241.5 61.5t166 172t59.5 251.5 t-59.5 251t-166 171t-241.5 61t-241.5 -61t-166 -171t-59.5 -251zM510 1602l217 249h313l217 -249h-225l-137 122h-23l-135 -122h-227z" />
<glyph unicode="&#xd5;" horiz-adv-x="1767" d="M76 729q0 227 102.5 401.5t285.5 270.5t419 96t419 -96t285.5 -270.5t102.5 -401.5q0 -229 -101.5 -403t-285 -269.5t-420.5 -95.5q-238 0 -421 95.5t-284.5 269.5t-101.5 403zM416 729q0 -141 59.5 -251.5t166 -172t241.5 -61.5t241.5 61.5t166 172t59.5 251.5 t-59.5 251t-166 171t-241.5 61t-241.5 -61t-166 -171t-59.5 -251zM469 1747q45 74 110.5 116t147.5 42q53 0 91 -15.5t93 -48.5q39 -25 63.5 -36t53.5 -11q39 0 74 24.5t55 65.5l129 -88q-102 -166 -264 -166q-57 0 -99 17.5t-92 50.5q-39 23 -59 33t-45 10 q-37 0 -71.5 -24.5t-59.5 -65.5z" />
<glyph unicode="&#xd6;" horiz-adv-x="1767" d="M76 729q0 227 102.5 401.5t285.5 270.5t419 96t419 -96t285.5 -270.5t102.5 -401.5q0 -229 -101.5 -403t-285 -269.5t-420.5 -95.5q-238 0 -421 95.5t-284.5 269.5t-101.5 403zM416 729q0 -141 59.5 -251.5t166 -172t241.5 -61.5t241.5 61.5t166 172t59.5 251.5 t-59.5 251t-166 171t-241.5 61t-241.5 -61t-166 -171t-59.5 -251zM477 1737q0 66 44 107.5t112 41.5q70 0 114 -42t44 -107q0 -68 -44.5 -111t-113.5 -43q-68 0 -112 43t-44 111zM979 1737q0 66 44 107.5t112 41.5q70 0 112.5 -42t42.5 -107q0 -68 -43 -111t-112 -43 q-68 0 -112 43t-44 111z" />
<glyph unicode="&#xd7;" horiz-adv-x="874" d="M70 528l194 203l-194 203l176 176l192 -201l193 201l176 -176l-197 -203l197 -203l-176 -176l-193 203l-192 -203z" />
<glyph unicode="&#xd8;" horiz-adv-x="1726" d="M78 729q0 223 101.5 398.5t279.5 272.5t403 97q150 0 275 -47l157 311h219l-202 -391q160 -100 249 -267t89 -374q0 -223 -101.5 -398t-281 -272.5t-404.5 -97.5q-129 0 -252 41l-145 -289h-217l186 363q-168 96 -262 267t-94 386zM418 729q0 -117 42 -213t118 -160 l426 838q-74 25 -142 25q-127 0 -228.5 -63.5t-158.5 -175.5t-57 -251zM743 256q59 -16 119 -16q129 0 230.5 62.5t159 174t57.5 252.5q0 111 -38 203t-108 158z" />
<glyph unicode="&#xd9;" horiz-adv-x="1579" d="M139 584v874h340v-866q0 -156 86 -252t226 -96q137 0 224 97t87 251v866h340v-874q0 -184 -82 -325.5t-230.5 -219.5t-338.5 -78q-191 0 -338.5 78t-230.5 219t-83 326zM401 1849h301l228 -247h-258z" />
<glyph unicode="&#xda;" horiz-adv-x="1579" d="M139 584v874h340v-866q0 -156 86 -252t226 -96q137 0 224 97t87 251v866h340v-874q0 -184 -82 -325.5t-230.5 -219.5t-338.5 -78q-191 0 -338.5 78t-230.5 219t-83 326zM657 1602l226 247h301l-269 -247h-258z" />
<glyph unicode="&#xdb;" horiz-adv-x="1579" d="M139 584v874h340v-866q0 -156 86 -252t226 -96q137 0 224 97t87 251v866h340v-874q0 -184 -82 -325.5t-230.5 -219.5t-338.5 -78q-191 0 -338.5 78t-230.5 219t-83 326zM420 1602l217 249h313l217 -249h-227l-135 122h-23l-135 -122h-227z" />
<glyph unicode="&#xdc;" horiz-adv-x="1579" d="M139 584v874h340v-866q0 -156 86 -252t226 -96q137 0 224 97t87 251v866h340v-874q0 -184 -82 -325.5t-230.5 -219.5t-338.5 -78q-191 0 -338.5 78t-230.5 219t-83 326zM385 1737q0 63 45 106t113 43t111.5 -42t43.5 -107q0 -68 -44 -111t-111 -43q-68 0 -113 43t-45 111 zM887 1737q0 63 45 106t112 43q68 0 112 -42t44 -107q0 -68 -44 -111t-112 -43q-67 0 -112 43t-45 111z" />
<glyph unicode="&#xdd;" horiz-adv-x="1437" d="M37 1458h354l322 -647h20l309 647h359l-508 -950v-508h-340v508zM584 1602l227 247h301l-268 -247h-260z" />
<glyph unicode="&#xdf;" horiz-adv-x="1447" d="M127 0v971q0 152 74.5 269.5t210 183t309.5 65.5q160 0 283.5 -54.5t193.5 -149.5t70 -214q0 -102 -49.5 -175t-133.5 -103v-21q133 -33 219.5 -138.5t86.5 -250.5q0 -119 -62.5 -215t-170 -151.5t-240.5 -55.5q-76 0 -161 13.5t-145 35.5v242q49 -20 109.5 -33.5 t109.5 -13.5q100 0 160 57t60 158q0 106 -70 168.5t-205 62.5h-92v207h94q76 0 125 49t49 127q0 92 -66.5 148.5t-170.5 56.5q-113 0 -180.5 -73.5t-67.5 -198.5v-967h-340z" />
<glyph unicode="&#xe0;" horiz-adv-x="1171" d="M49 274q0 297 496 359l223 26v43q0 76 -50 122t-140 46q-84 0 -135.5 -44t-49.5 -121h-297q0 172 132 274t354 102q223 0 356 -105.5t133 -283.5v-692h-303v133h-20q-49 -78 -136.5 -119t-199.5 -41q-164 0 -263.5 81t-99.5 220zM217 1520h281l213 -312h-240zM346 299 q0 -59 44 -93t122 -34q113 0 184.5 65.5t71.5 163.5v74l-215 -26q-106 -12 -156.5 -52.5t-50.5 -97.5z" />
<glyph unicode="&#xe1;" horiz-adv-x="1171" d="M49 274q0 297 496 359l223 26v43q0 76 -50 122t-140 46q-84 0 -135.5 -44t-49.5 -121h-297q0 172 132 274t354 102q223 0 356 -105.5t133 -283.5v-692h-303v133h-20q-49 -78 -136.5 -119t-199.5 -41q-164 0 -263.5 81t-99.5 220zM346 299q0 -59 44 -93t122 -34 q113 0 184.5 65.5t71.5 163.5v74l-215 -26q-106 -12 -156.5 -52.5t-50.5 -97.5zM459 1208l213 312h280l-256 -312h-237z" />
<glyph unicode="&#xe2;" horiz-adv-x="1171" d="M49 274q0 297 496 359l223 26v43q0 76 -50 122t-140 46q-84 0 -135.5 -44t-49.5 -121h-297q0 172 132 274t354 102q223 0 356 -105.5t133 -283.5v-692h-303v133h-20q-49 -78 -136.5 -119t-199.5 -41q-164 0 -263.5 81t-99.5 220zM221 1192l211 309h307l215 -309h-231 l-125 164h-20l-129 -164h-228zM346 299q0 -59 44 -93t122 -34q113 0 184.5 65.5t71.5 163.5v74l-215 -26q-106 -12 -156.5 -52.5t-50.5 -97.5z" />
<glyph unicode="&#xe3;" horiz-adv-x="1171" d="M49 274q0 297 496 359l223 26v43q0 76 -50 122t-140 46q-84 0 -135.5 -44t-49.5 -121h-297q0 172 132 274t354 102q223 0 356 -105.5t133 -283.5v-692h-303v133h-20q-49 -78 -136.5 -119t-199.5 -41q-164 0 -263.5 81t-99.5 220zM182 1329q45 74 111.5 116t148.5 42 q53 0 92 -16.5t89 -49.5q43 -25 66.5 -36t53.5 -11q39 0 74 22.5t53 57.5l129 -88q-102 -166 -264 -166q-57 0 -100 17.5t-90 48.5q-35 23 -58.5 34t-50.5 11q-37 0 -71.5 -21.5t-55.5 -56.5zM346 299q0 -59 44 -93t122 -34q113 0 184.5 65.5t71.5 163.5v74l-215 -26 q-106 -12 -156.5 -52.5t-50.5 -97.5z" />
<glyph unicode="&#xe4;" horiz-adv-x="1171" d="M49 274q0 297 496 359l223 26v43q0 76 -50 122t-140 46q-84 0 -135.5 -44t-49.5 -121h-297q0 172 132 274t354 102q223 0 356 -105.5t133 -283.5v-692h-303v133h-20q-49 -78 -136.5 -119t-199.5 -41q-164 0 -263.5 81t-99.5 220zM160 1348q0 68 45 110.5t114 42.5 q70 0 115 -43t45 -110q0 -66 -45 -110t-115 -44q-69 0 -114 44t-45 110zM346 299q0 -59 44 -93t122 -34q113 0 184.5 65.5t71.5 163.5v74l-215 -26q-106 -12 -156.5 -52.5t-50.5 -97.5zM690 1348q0 68 45 110.5t115 42.5t115 -43t45 -110q0 -66 -45 -110t-115 -44t-115 44 t-45 110z" />
<glyph unicode="&#xe5;" horiz-adv-x="1171" d="M49 274q0 297 496 359l223 26v43q0 76 -50 122t-140 46q-84 0 -135.5 -44t-49.5 -121h-297q0 172 132 274t354 102q223 0 356 -105.5t133 -283.5v-692h-303v133h-20q-49 -78 -136.5 -119t-199.5 -41q-164 0 -263.5 81t-99.5 220zM340 1423q0 100 67.5 164t176.5 64 t176 -62.5t67 -165.5q0 -102 -67.5 -164.5t-175.5 -62.5q-109 0 -176.5 63.5t-67.5 163.5zM346 299q0 -59 44 -93t122 -34q113 0 184.5 65.5t71.5 163.5v74l-215 -26q-106 -12 -156.5 -52.5t-50.5 -97.5zM465 1423q0 -51 33.5 -84.5t85.5 -33.5q53 0 87 33.5t34 84.5t-34 85 t-87 34q-51 0 -85 -32.5t-34 -86.5z" />
<glyph unicode="&#xe6;" horiz-adv-x="1902" d="M49 274q0 141 127 237.5t369 125.5l223 27v34q0 74 -53 117t-144 43q-80 0 -130 -41t-48 -104h-297q0 106 58.5 191t161 132t231.5 47t230.5 -45t160.5 -123q154 166 383 166q147 0 264 -69.5t183.5 -195.5t66.5 -288q0 -68 -4 -90h-776q16 -111 85.5 -178t170.5 -67 q72 0 132 37.5t93 105.5l260 -68q-47 -131 -176 -216t-289 -85q-137 0 -246.5 63.5t-171.5 174.5q-53 -106 -177 -169t-279 -63q-184 0 -296 82t-112 219zM346 309q0 -57 46 -89t122 -32q111 0 182.5 63.5t71.5 156.5v77l-215 -26q-104 -12 -155.5 -52t-51.5 -98zM1053 623 h473q-12 104 -77 168.5t-161 64.5q-92 0 -155.5 -63.5t-79.5 -169.5z" />
<glyph unicode="&#xe7;" horiz-adv-x="1247" d="M70 524q0 166 72.5 292t201.5 195.5t295 69.5q141 0 257 -50t189.5 -142t90.5 -215l-283 -37q-20 86 -91 140t-159 54q-117 0 -193.5 -86t-76.5 -221t75.5 -221t192.5 -86q90 0 160.5 54.5t93.5 138.5l283 -35q-27 -170 -155 -278.5t-314 -125.5l-11 -63 q90 -4 148.5 -56.5t58.5 -127.5q0 -82 -64.5 -134.5t-166.5 -52.5q-90 0 -155.5 41t-82.5 107l129 51q8 -33 38 -54.5t67 -21.5t59.5 21.5t22.5 52.5q0 39 -33 63.5t-82 24.5h-107l25 149q-143 16 -254 91t-171 194t-60 268z" />
<glyph unicode="&#xe8;" horiz-adv-x="1280" d="M70 532q0 162 73.5 287t204.5 193.5t299 68.5q166 0 295 -69.5t199.5 -194.5t70.5 -289q0 -47 -4 -92h-825q20 -113 95 -178t186 -65q84 0 150.5 38.5t100.5 104.5l259 -66q-49 -141 -190.5 -222t-334.5 -81q-168 0 -300 71t-205.5 200t-73.5 294zM279 1520h280l213 -312 h-240zM381 625h522q-14 100 -87 165.5t-177 65.5q-100 0 -169 -62.5t-89 -168.5z" />
<glyph unicode="&#xe9;" horiz-adv-x="1280" d="M70 532q0 162 73.5 287t204.5 193.5t299 68.5q166 0 295 -69.5t199.5 -194.5t70.5 -289q0 -47 -4 -92h-825q20 -113 95 -178t186 -65q84 0 150.5 38.5t100.5 104.5l259 -66q-49 -141 -190.5 -222t-334.5 -81q-168 0 -300 71t-205.5 200t-73.5 294zM381 625h522 q-14 100 -87 165.5t-177 65.5q-100 0 -169 -62.5t-89 -168.5zM520 1208l213 312h281l-254 -312h-240z" />
<glyph unicode="&#xea;" horiz-adv-x="1280" d="M70 532q0 162 73.5 287t204.5 193.5t299 68.5q166 0 295 -69.5t199.5 -194.5t70.5 -289q0 -47 -4 -92h-825q20 -113 95 -178t186 -65q84 0 150.5 38.5t100.5 104.5l259 -66q-49 -141 -190.5 -222t-334.5 -81q-168 0 -300 71t-205.5 200t-73.5 294zM283 1192l211 309h307 l215 -309h-232l-125 164h-20l-127 -164h-229zM381 625h522q-14 100 -87 165.5t-177 65.5q-100 0 -169 -62.5t-89 -168.5z" />
<glyph unicode="&#xeb;" horiz-adv-x="1280" d="M70 532q0 162 73.5 287t204.5 193.5t299 68.5q166 0 295 -69.5t199.5 -194.5t70.5 -289q0 -47 -4 -92h-825q20 -113 95 -178t186 -65q84 0 150.5 38.5t100.5 104.5l259 -66q-49 -141 -190.5 -222t-334.5 -81q-168 0 -300 71t-205.5 200t-73.5 294zM221 1348 q0 68 45 110.5t115 42.5t115 -43t45 -110q0 -66 -45 -110t-115 -44t-115 44t-45 110zM381 625h522q-14 100 -87 165.5t-177 65.5q-100 0 -169 -62.5t-89 -168.5zM752 1348q0 68 45 110.5t114 42.5q70 0 115 -43t45 -110q0 -66 -45 -110t-115 -44q-69 0 -114 44t-45 110z" />
<glyph unicode="&#xec;" horiz-adv-x="534" d="M-98 1520h280l213 -312h-239zM117 0v1049h303v-1049h-303z" />
<glyph unicode="&#xed;" horiz-adv-x="534" d="M117 0v1049h303v-1049h-303zM143 1208l213 312h281l-254 -312h-240z" />
<glyph unicode="&#xee;" horiz-adv-x="534" d="M-94 1192l211 309h307l215 -309h-231l-125 164h-21l-127 -164h-229zM117 0v1049h303v-1049h-303z" />
<glyph unicode="&#xef;" horiz-adv-x="534" d="M-156 1348q0 68 45 110.5t115 42.5t115 -43t45 -110q0 -66 -45 -110t-115 -44t-115 44t-45 110zM117 0v1049h303v-1049h-303zM375 1348q0 68 45 110.5t115 42.5t114.5 -43t44.5 -110q0 -66 -45 -110t-114 -44q-70 0 -115 44t-45 110z" />
<glyph unicode="&#xf1;" horiz-adv-x="1241" d="M117 0v1049h303v-148h20q117 178 305 178q117 0 207 -56t139.5 -155.5t49.5 -224.5v-643h-303v600q0 98 -53.5 158.5t-143.5 60.5q-92 0 -156.5 -65.5t-64.5 -163.5v-590h-303zM242 1329q47 74 113.5 116t146.5 42q53 0 93 -16.5t91 -49.5q39 -25 63.5 -36t53.5 -11 q41 0 74.5 22.5t52.5 57.5l129 -88q-100 -166 -264 -166q-58 0 -98 16.5t-91 49.5q-35 23 -58.5 34t-51.5 11q-37 0 -71 -21.5t-56 -56.5z" />
<glyph unicode="&#xf2;" horiz-adv-x="1298" d="M68 524q0 168 72.5 294t203.5 194.5t305 68.5q172 0 304 -68.5t205 -194.5t73 -294t-73 -294t-205 -194.5t-304 -68.5q-174 0 -305 68.5t-203.5 194.5t-72.5 294zM283 1520h278l215 -312h-239zM371 524q0 -131 77.5 -215t200.5 -84q121 0 199 84t78 215t-78 214t-199 83 q-123 0 -200.5 -83t-77.5 -214z" />
<glyph unicode="&#xf3;" horiz-adv-x="1298" d="M68 524q0 168 72.5 294t203.5 194.5t305 68.5q172 0 304 -68.5t205 -194.5t73 -294t-73 -294t-205 -194.5t-304 -68.5q-174 0 -305 68.5t-203.5 194.5t-72.5 294zM371 524q0 -131 77.5 -215t200.5 -84q121 0 199 84t78 215t-78 214t-199 83q-123 0 -200.5 -83t-77.5 -214 zM522 1208l215 312h279l-254 -312h-240z" />
<glyph unicode="&#xf4;" horiz-adv-x="1298" d="M68 524q0 168 72.5 294t203.5 194.5t305 68.5q172 0 304 -68.5t205 -194.5t73 -294t-73 -294t-205 -194.5t-304 -68.5q-174 0 -305 68.5t-203.5 194.5t-72.5 294zM287 1192l211 309h307l213 -309h-230l-124 164h-21l-129 -164h-227zM371 524q0 -131 77.5 -215t200.5 -84 q121 0 199 84t78 215t-78 214t-199 83q-123 0 -200.5 -83t-77.5 -214z" />
<glyph unicode="&#xf5;" horiz-adv-x="1298" d="M68 524q0 168 72.5 294t203.5 194.5t305 68.5q172 0 304 -68.5t205 -194.5t73 -294t-73 -294t-205 -194.5t-304 -68.5q-174 0 -305 68.5t-203.5 194.5t-72.5 294zM246 1329q45 74 112.5 116t147.5 42q53 0 93 -16.5t91 -49.5q39 -25 63.5 -36t53.5 -11q39 0 73.5 22.5 t53.5 57.5l129 -88q-102 -166 -264 -166q-58 0 -97.5 16.5t-91.5 49.5q-35 23 -58.5 34t-51.5 11q-37 0 -71 -21.5t-56 -56.5zM371 524q0 -131 77.5 -215t200.5 -84q121 0 199 84t78 215t-78 214t-199 83q-123 0 -200.5 -83t-77.5 -214z" />
<glyph unicode="&#xf6;" horiz-adv-x="1298" d="M68 524q0 168 72.5 294t203.5 194.5t305 68.5q172 0 304 -68.5t205 -194.5t73 -294t-73 -294t-205 -194.5t-304 -68.5q-174 0 -305 68.5t-203.5 194.5t-72.5 294zM225 1348q0 68 44 110.5t114 42.5t115 -43t45 -110q0 -66 -45 -110t-115 -44t-114 44t-44 110zM371 524 q0 -131 77.5 -215t200.5 -84q121 0 199 84t78 215t-78 214t-199 83q-123 0 -200.5 -83t-77.5 -214zM756 1348q0 68 45 110.5t114 42.5q70 0 114 -43t44 -110q0 -66 -44 -110t-114 -44q-69 0 -114 44t-45 110z" />
<glyph unicode="&#xf7;" horiz-adv-x="1060" d="M70 614v226h921v-226h-921zM379 305q0 63 42 104.5t109 41.5q66 0 109 -41t43 -105q0 -63 -43 -105t-109 -42q-67 0 -109 41t-42 106zM379 1141q0 63 42 104t109 41q66 0 109 -41t43 -104t-43 -105.5t-109 -42.5q-67 0 -109 41t-42 107z" />
<glyph unicode="&#xf8;" horiz-adv-x="1325" d="M70 524q0 166 74.5 292t207.5 195.5t307 69.5q101 1 197 -28l86 176h188l-124 -240q119 -70 184 -190.5t65 -274.5q0 -164 -74.5 -291t-208.5 -196.5t-308 -69.5q-84 0 -172 21l-76 -152h-187l107 207q-127 72 -196.5 195.5t-69.5 285.5zM336 524q0 -84 28.5 -151.5 t81.5 -114.5l306 598q-41 14 -90 14q-95 0 -168.5 -44t-115.5 -122.5t-42 -179.5zM594 184q20 -6 68 -6q143 0 234 97.5t91 248.5q0 154 -94 248z" />
<glyph unicode="&#xf9;" horiz-adv-x="1241" d="M100 406v643h303v-600q0 -98 53.5 -159t143.5 -61q92 0 156.5 65.5t64.5 164.5v590h303v-1049h-303v147h-20q-117 -178 -305 -178q-117 0 -207 56.5t-139.5 156t-49.5 224.5zM242 1520h280l213 -312h-239z" />
<glyph unicode="&#xfa;" horiz-adv-x="1241" d="M100 406v643h303v-600q0 -98 53.5 -159t143.5 -61q92 0 156.5 65.5t64.5 164.5v590h303v-1049h-303v147h-20q-117 -178 -305 -178q-117 0 -207 56.5t-139.5 156t-49.5 224.5zM481 1208l215 312h281l-256 -312h-240z" />
<glyph unicode="&#xfb;" horiz-adv-x="1241" d="M100 406v643h303v-600q0 -98 53.5 -159t143.5 -61q92 0 156.5 65.5t64.5 164.5v590h303v-1049h-303v147h-20q-117 -178 -305 -178q-117 0 -207 56.5t-139.5 156t-49.5 224.5zM246 1192l211 309h307l213 -309h-229l-125 164h-21l-129 -164h-227z" />
<glyph unicode="&#xfc;" horiz-adv-x="1241" d="M100 406v643h303v-600q0 -98 53.5 -159t143.5 -61q92 0 156.5 65.5t64.5 164.5v590h303v-1049h-303v147h-20q-117 -178 -305 -178q-117 0 -207 56.5t-139.5 156t-49.5 224.5zM184 1348q0 68 45 110.5t115 42.5t114 -43t44 -110q0 -66 -44 -110t-114 -44t-115 44t-45 110z M715 1348q0 68 45 110.5t114 42.5q70 0 115 -43t45 -110q0 -66 -45 -110t-115 -44q-69 0 -114 44t-45 110z" />
<glyph unicode="&#xfd;" horiz-adv-x="1198" d="M14 1049h326l281 -670h20l227 670h316l-406 -1086q-82 -219 -179 -327.5t-255 -108.5q-51 0 -112.5 10t-104.5 27l2 243q33 -14 77 -22t79 -8q88 0 135 55t88 158zM502 1208l215 312h280l-256 -312h-239z" />
<glyph unicode="&#xff;" horiz-adv-x="1198" d="M14 1049h326l281 -670h20l227 670h316l-406 -1086q-82 -219 -179 -327.5t-255 -108.5q-51 0 -112.5 10t-104.5 27l2 243q33 -14 77 -22t79 -8q88 0 135 55t88 158zM205 1348q0 68 45 110.5t115 42.5t113.5 -43t43.5 -110q0 -66 -44 -110t-113 -44q-70 0 -115 44t-45 110z M735 1348q0 68 45 110.5t115 42.5t115 -43t45 -110q0 -66 -45 -110t-115 -44t-115 44t-45 110z" />
<glyph unicode="&#x152;" horiz-adv-x="2117" d="M78 729q0 227 92 401.5t260 270.5t389 96q145 0 266 -39h947v-274h-619v-324h537v-242h-537v-344h639v-274h-965q-117 -39 -268 -39q-221 0 -389 96.5t-260 270.5t-92 401zM418 729q0 -137 56 -245.5t156.5 -169t225.5 -60.5q64 0 126 13.5t99 35.5v850q-37 25 -95 38 t-118 13q-129 0 -231 -60.5t-160.5 -168t-58.5 -246.5z" />
<glyph unicode="&#x153;" horiz-adv-x="2140" d="M70 524q0 164 72.5 291t201.5 196.5t293 69.5q143 0 257 -53t185 -151q74 96 186.5 150t250.5 54q162 0 288.5 -70.5t197.5 -195.5t71 -287q-1 -69 -5 -92h-825q14 -106 92 -170.5t189 -64.5q82 0 149.5 36.5t102.5 98.5l247 -78q-51 -133 -188 -212t-317 -79 q-137 0 -248 53.5t-185 151.5q-72 -98 -185.5 -151.5t-256.5 -53.5q-168 0 -298 69.5t-202.5 196.5t-72.5 291zM373 524q0 -131 77.5 -215t200.5 -84q121 0 199 84t78 215t-78 214t-199 83q-123 0 -200.5 -83t-77.5 -214zM1243 625h520q-14 104 -85.5 167.5t-176.5 63.5 q-102 0 -171.5 -63.5t-86.5 -167.5z" />
<glyph unicode="&#x178;" horiz-adv-x="1437" d="M37 1458h354l322 -647h20l309 647h359l-508 -950v-508h-340v508zM313 1737q0 63 45 106t113 43t112 -42t44 -107q0 -68 -44 -111t-112 -43t-113 43t-45 111zM815 1737q0 66 44 107.5t114 41.5q68 0 111.5 -42t43.5 -107q0 -68 -44 -111t-111 -43q-70 0 -114 43t-44 111z " />
<glyph unicode="&#x2c6;" horiz-adv-x="870" d="M70 1192l211 311h307l213 -311h-230l-125 164h-20l-129 -164h-227z" />
<glyph unicode="&#x2dc;" horiz-adv-x="954" d="M70 1329q45 74 112.5 116t147.5 42q53 0 93 -16.5t91 -49.5q39 -25 63.5 -36t53.5 -11q39 0 73.5 22.5t53.5 57.5l129 -88q-102 -166 -264 -166q-58 0 -98 16.5t-91 49.5q-35 23 -58.5 34t-51.5 11q-37 0 -71 -21.5t-56 -56.5z" />
<glyph unicode="&#x2000;" horiz-adv-x="983" />
<glyph unicode="&#x2001;" horiz-adv-x="1966" />
<glyph unicode="&#x2002;" horiz-adv-x="983" />
<glyph unicode="&#x2003;" horiz-adv-x="1966" />
<glyph unicode="&#x2004;" horiz-adv-x="655" />
<glyph unicode="&#x2005;" />
<glyph unicode="&#x2006;" horiz-adv-x="327" />
<glyph unicode="&#x2007;" horiz-adv-x="327" />
<glyph unicode="&#x2008;" horiz-adv-x="245" />
<glyph unicode="&#x2009;" horiz-adv-x="393" />
<glyph unicode="&#x200a;" horiz-adv-x="109" />
<glyph unicode="&#x2010;" horiz-adv-x="985" d="M74 512v250h839v-250h-839z" />
<glyph unicode="&#x2011;" horiz-adv-x="985" d="M74 512v250h839v-250h-839z" />
<glyph unicode="&#x2012;" horiz-adv-x="985" d="M74 512v250h839v-250h-839z" />
<glyph unicode="&#x2013;" horiz-adv-x="1302" d="M68 512v250h1167v-250h-1167z" />
<glyph unicode="&#x2014;" horiz-adv-x="1712" d="M68 512v250h1577v-250h-1577z" />
<glyph unicode="&#x2018;" horiz-adv-x="489" d="M68 1057q0 63 43 139l174 340l112 -39l-112 -272q61 -12 99 -58.5t38 -109.5q0 -74 -50 -122t-128 -48q-76 0 -126 48t-50 122z" />
<glyph unicode="&#x2019;" d="M72 1362q0 74 50 122t126 48t126 -48t50 -122q0 -61 -41 -139l-176 -338l-113 37l115 272q-61 12 -99 58t-38 110z" />
<glyph unicode="&#x201a;" d="M72 147q0 76 49 124t127 48t127 -48t49 -124q0 -61 -41 -139l-176 -338l-113 37l115 273q-61 12 -99 58t-38 109z" />
<glyph unicode="&#x201c;" horiz-adv-x="931" d="M68 1057q0 63 43 139l174 340l112 -39l-112 -272q61 -12 99 -58.5t38 -109.5q0 -74 -50 -122t-128 -48q-76 0 -126 48t-50 122zM510 1057q0 63 43 139l174 340l113 -39l-113 -272q61 -12 99 -58.5t38 -109.5q0 -74 -50 -122t-126 -48q-78 0 -128 48t-50 122z" />
<glyph unicode="&#x201d;" horiz-adv-x="933" d="M72 1362q0 74 50 122t126 48t126 -48t50 -122q0 -61 -41 -139l-176 -338l-113 37l115 272q-61 12 -99 58t-38 110zM514 1362q0 74 50 122t126 48t126 -48t50 -122q0 -61 -43 -139l-174 -338l-112 37l112 272q-61 12 -98 58t-37 110z" />
<glyph unicode="&#x201e;" horiz-adv-x="933" d="M72 147q0 76 49 124t127 48t127 -48t49 -124q0 -61 -41 -139l-176 -338l-113 37l115 273q-61 12 -99 58t-38 109zM514 147q0 76 49 124t127 48t128 -48t50 -124q0 -61 -43 -139l-174 -338l-112 37l112 273q-61 12 -99 58t-38 109z" />
<glyph unicode="&#x2022;" horiz-adv-x="589" d="M70 635q0 96 63.5 157.5t161.5 61.5t161.5 -61.5t63.5 -157.5t-63.5 -157.5t-161.5 -61.5t-161.5 61.5t-63.5 157.5z" />
<glyph unicode="&#x2026;" horiz-adv-x="1388" d="M68 147q0 76 49 124t127 48t127 -48t49 -124t-49 -124t-127 -48t-127 48.5t-49 123.5zM516 147q0 76 50 124t128 48t127 -48t49 -124t-49 -124t-127 -48t-128 48.5t-50 123.5zM967 147q0 76 49 124t127 48t127 -48t49 -124t-49 -124t-127 -48t-127 48.5t-49 123.5z" />
<glyph unicode="&#x202f;" horiz-adv-x="393" />
<glyph unicode="&#x2039;" horiz-adv-x="782" d="M16 532l375 517h324l-385 -517l385 -532h-324z" />
<glyph unicode="&#x203a;" horiz-adv-x="780" d="M68 0l385 532l-385 517h323l373 -517l-373 -532h-323z" />
<glyph unicode="&#x205f;" />
<glyph unicode="&#x20ac;" horiz-adv-x="1837" d="M70 516v162h188q-2 16 -2 51q0 39 2 57h-188v162h213q43 166 149.5 290t262 191.5t339.5 67.5q180 0 336 -70.5t258.5 -198.5t128.5 -290l-319 -35q-31 135 -143.5 222t-254.5 87q-139 0 -245.5 -70.5t-157.5 -193.5h444v-162h-483q-2 -18 -2 -57q0 -35 2 -51h483v-162 h-446q51 -127 158.5 -199.5t246.5 -72.5q140 0 252.5 85t147.5 218l317 -43q-25 -158 -126 -282t-256.5 -192.5t-340.5 -68.5q-186 0 -341.5 68.5t-262 193.5t-149.5 293h-211z" />
<glyph unicode="&#x2122;" horiz-adv-x="2359" d="M23 1239v219h815v-219h-281v-932h-256v932h-278zM961 307v1151h331l287 -811h20l283 811h340v-1151h-242v778h-20l-272 -778h-193l-272 778h-21v-778h-241z" />
<glyph unicode="&#x25fc;" horiz-adv-x="1044" d="M0 0v1044h1044v-1044h-1044z" />
</font>
</defs>
</svg>
