<svg width="1440" height="167" viewBox="0 0 1440 167" fill="none" xmlns="http://www.w3.org/2000/svg">
<g clip-path="url(#clip0_400_464)">
<rect width="1440" height="2969" transform="translate(0 -993)" fill="white"/>
<path d="M-123.529 -187.556C48.8419 -246.497 45.3368 -322.817 176.405 -315.796C307.474 -308.776 517.717 -168.654 646.481 -231.645C775.244 -294.636 1354.61 -578.447 1460.84 -444.682C1567.07 -310.918 1619.04 -73.6535 1538.72 -13.3426C1458.4 46.9683 645.416 123.347 724 166.5" stroke="#FF4300" stroke-dasharray="10 10"/>
<path d="M1360 0C1356.13 0 1353 3.13 1353 7C1353 12.25 1360 20 1360 20C1360 20 1367 12.25 1367 7C1367 3.13 1363.87 0 1360 0ZM1360 9.5C1359.34 9.5 1358.7 9.23661 1358.23 8.76777C1357.76 8.29893 1357.5 7.66304 1357.5 7C1357.5 6.33696 1357.76 5.70107 1358.23 5.23223C1358.7 4.76339 1359.34 4.5 1360 4.5C1360.66 4.5 1361.3 4.76339 1361.77 5.23223C1362.24 5.70107 1362.5 6.33696 1362.5 7C1362.5 7.66304 1362.24 8.29893 1361.77 8.76777C1361.3 9.23661 1360.66 9.5 1360 9.5Z" fill="#FF4300"/>
</g>
<defs>
<clipPath id="clip0_400_464">
<rect width="1440" height="2969" fill="white" transform="translate(0 -993)"/>
</clipPath>
</defs>
</svg>
