<svg width="907" height="136" viewBox="0 0 907 136" fill="none" xmlns="http://www.w3.org/2000/svg">
<g clip-path="url(#clip0_400_368)">
<rect width="1440" height="4479" transform="translate(0 -641)" fill="transparent"/>
<path d="M-119.711 162.507C52.6593 103.567 49.1542 27.2462 180.223 34.2671C311.291 41.288 521.534 181.41 650.298 118.419C779.062 55.4274 1358.43 -228.383 1464.66 -94.6188C1570.88 39.1459 1622.85 254.41 1542.54 314.721C1462.22 375.032 824.858 495.565 903.442 538.717" stroke="#FF4300" stroke-dasharray="10 10"/>
<path d="M669 78C665.13 78 662 81.13 662 85C662 90.25 669 98 669 98C669 98 676 90.25 676 85C676 81.13 672.87 78 669 78ZM669 87.5C668.337 87.5 667.701 87.2366 667.232 86.7678C666.763 86.2989 666.5 85.663 666.5 85C666.5 84.337 666.763 83.7011 667.232 83.2322C667.701 82.7634 668.337 82.5 669 82.5C669.663 82.5 670.299 82.7634 670.768 83.2322C671.237 83.7011 671.5 84.337 671.5 85C671.5 85.663 671.237 86.2989 670.768 86.7678C670.299 87.2366 669.663 87.5 669 87.5Z" fill="#FF4300"/>
<path d="M48 40C44.13 40 41 43.13 41 47C41 52.25 48 60 48 60C48 60 55 52.25 55 47C55 43.13 51.87 40 48 40ZM48 49.5C47.337 49.5 46.7011 49.2366 46.2322 48.7678C45.7634 48.2989 45.5 47.663 45.5 47C45.5 46.337 45.7634 45.7011 46.2322 45.2322C46.7011 44.7634 47.337 44.5 48 44.5C48.663 44.5 49.2989 44.7634 49.7678 45.2322C50.2366 45.7011 50.5 46.337 50.5 47C50.5 47.663 50.2366 48.2989 49.7678 48.7678C49.2989 49.2366 48.663 49.5 48 49.5Z" fill="#FF4300"/>
</g>
<defs>
<clipPath id="clip0_400_368">
<rect width="1440" height="4479" fill="transparent" transform="translate(0 -641)"/>
</clipPath>
</defs>
</svg>
