<svg width="306" height="144" viewBox="0 0 306 144" fill="none" xmlns="http://www.w3.org/2000/svg">
<g clip-path="url(#clip0_400_629)">
<rect width="430" height="6478" transform="translate(0 -705)" fill="transparent"/>
<path d="M-798.855 165.73C-624.827 105.204 -629.131 15.1544 -496.291 30.1714C-363.451 45.1884 -149.095 221.012 -19.2812 153.469C110.533 85.9272 694.625 -218.429 803.551 -55.448C912.477 107.533 967.246 363.687 886.481 430.568C805.715 497.449 161.269 606.555 241.299 661.415" stroke="#FF4300" stroke-dasharray="10 10"/>
<path d="M34 79C30.13 79 27 82.13 27 86C27 91.25 34 99 34 99C34 99 41 91.25 41 86C41 82.13 37.87 79 34 79ZM34 88.5C33.337 88.5 32.7011 88.2366 32.2322 87.7678C31.7634 87.2989 31.5 86.663 31.5 86C31.5 85.337 31.7634 84.7011 32.2322 84.2322C32.7011 83.7634 33.337 83.5 34 83.5C34.663 83.5 35.2989 83.7634 35.7678 84.2322C36.2366 84.7011 36.5 85.337 36.5 86C36.5 86.663 36.2366 87.2989 35.7678 87.7678C35.2989 88.2366 34.663 88.5 34 88.5Z" fill="#FF4300"/>
</g>
<defs>
<clipPath id="clip0_400_629">
<rect width="430" height="6478" fill="transparent" transform="translate(0 -705)"/>
</clipPath>
</defs>
</svg>
