<?xml version="1.0" encoding="utf-8"?>
<!-- Generator: Adobe Illustrator 27.6.1, SVG Export Plug-In . SVG Version: 6.00 Build 0)  -->
<svg version="1.1" id="Layer_1" xmlns="http://www.w3.org/2000/svg" xmlns:xlink="http://www.w3.org/1999/xlink" x="0px" y="0px"
	 viewBox="0 0 430 98.8" style="enable-background:new 0 0 430 98.8;" xml:space="preserve">
<style type="text/css">
	.st0{fill:none;stroke:#FF4300;stroke-dasharray:10,10;}
	.st1{fill:#FF4300;}
	.st2{fill:none;}
</style>
<path class="st0" d="M-798.9-400.5c167.2-59.3,162.5-149.1,290.5-133.3c128,15.8,335.4,192.2,460,125.7
	c124.6-66.5,685.2-366.4,791-203.3c105.8,163.1,160.1,418.7,82.7,484.8C748.1-60.4,128.2,44.5,205.6,99.7"/>
<path class="st1" d="M338,0c-3.9,0-7,3.1-7,7c0,5.2,7,13,7,13s7-7.8,7-13C345,3.1,341.9,0,338,0z M338,9.5c-0.7,0-1.3-0.3-1.8-0.7
	s-0.7-1.1-0.7-1.8s0.3-1.3,0.7-1.8s1.1-0.7,1.8-0.7s1.3,0.3,1.8,0.7s0.7,1.1,0.7,1.8s-0.3,1.3-0.7,1.8S338.7,9.5,338,9.5z"/>
<rect x="325.4" y="98.3" transform="matrix(0.7905 -0.6125 0.6125 0.7905 -8.2431 252.9911)" class="st2" width="80.5" height="80.5"/>
<rect x="288.5" y="86.5" transform="matrix(0.7905 -0.6125 0.6125 0.7905 -3.0811 216.3465)" class="st2" width="52.3" height="52.3"/>
</svg>
