<svg width="127" height="127" viewBox="0 0 127 127" fill="none" xmlns="http://www.w3.org/2000/svg">
<circle cx="63.5" cy="63.5" r="63.5" fill="#FF4300"/>
<path d="M80.5253 40.0327H90.9552V50.4627H80.5253V40.0327ZM80.5253 55.6776H90.9552V66.1076H80.5253V55.6776ZM64.8804 40.0327H75.3103V50.4627H64.8804V40.0327ZM64.8804 55.6776H75.3103V66.1076H64.8804V55.6776Z" fill="white"/>
<path d="M58.3619 89.5749C60.522 89.5749 62.2731 87.8238 62.2731 85.6637C62.2731 83.5036 60.522 81.7524 58.3619 81.7524C56.2018 81.7524 54.4507 83.5036 54.4507 85.6637C54.4507 87.8238 56.2018 89.5749 58.3619 89.5749Z" fill="white"/>
<path d="M75.3106 100.005H41.4132C40.0305 100.003 38.7049 99.4535 37.7272 98.4758C36.7495 97.4981 36.1996 96.1725 36.1982 94.7898V32.2101C36.1996 30.8274 36.7495 29.5018 37.7272 28.5241C38.7049 27.5464 40.0305 26.9965 41.4132 26.9951H75.3106V32.2101H41.4132V94.7898H75.3106V73.9299H80.5255V94.7898C80.5242 96.1725 79.9743 97.4981 78.9966 98.4758C78.0189 99.4535 76.6932 100.003 75.3106 100.005Z" fill="white"/>
</svg>
